<svg xmlns="http://www.w3.org/2000/svg" width="1017" height="258" fill="none"><path fill="#F50" d="M.32 255 53.96 3h38.88c24.12 0 44.28 14.4 44.28 51.84 0 33.12-15.84 59.76-42.84 69.12 16.2 6.48 23.76 22.32 23.76 46.08 0 47.52-30.6 84.96-70.2 84.96H.32Zm39.6-30.6h9.72c19.44 0 35.64-26.64 35.64-56.16 0-17.64-5.76-29.52-17.28-29.52h-9.72L39.92 224.4ZM64.4 109.56h7.56c16.92 0 32.4-27.36 32.4-54 0-15.84-5.4-21.96-15.12-21.96H80.6l-16.2 75.96Zm107.575 148.32c-23.76 0-36.36-19.44-36.36-54.36 0-47.88 22.68-203.4 87.84-203.4 23.76 0 36.36 19.44 36.36 54.36 0 47.88-22.68 203.4-87.84 203.4Zm-4.68-51.48c0 15.48 3.6 20.88 9 20.88 27.36 0 51.84-136.08 51.84-175.68 0-15.48-3.6-20.88-9-20.88-27.36 0-51.84 136.08-51.84 175.68Zm129.485 51.48c-23.76 0-36.36-19.44-36.36-54.36 0-47.88 22.68-203.4 87.84-203.4 23.76 0 36.36 19.44 36.36 54.36 0 47.88-22.68 203.4-87.84 203.4Zm-4.68-51.48c0 15.48 3.6 20.88 9 20.88 27.36 0 51.84-136.08 51.84-175.68 0-15.48-3.6-20.88-9-20.88-27.36 0-51.84 136.08-51.84 175.68Zm129.485 51.48c-23.76 0-36.36-19.44-36.36-54.36 0-47.88 22.68-203.4 87.84-203.4 23.76 0 36.36 19.44 36.36 54.36 0 47.88-22.68 203.4-87.84 203.4Zm-4.68-51.48c0 15.48 3.6 20.88 9 20.88 27.36 0 51.84-136.08 51.84-175.68 0-15.48-3.6-20.88-9-20.88-27.36 0-51.84 136.08-51.84 175.68Zm129.484 51.48c-23.76 0-36.36-19.44-36.36-54.36 0-47.88 22.68-203.4 87.84-203.4 23.76 0 36.36 19.44 36.36 54.36 0 47.88-22.68 203.4-87.84 203.4Zm-4.68-51.48c0 15.48 3.6 20.88 9 20.88 27.36 0 51.84-136.08 51.84-175.68 0-15.48-3.6-20.88-9-20.88-27.36 0-51.84 136.08-51.84 175.68Zm129.485 51.48c-23.76 0-36.36-19.44-36.36-54.36 0-47.88 22.68-203.4 87.84-203.4 23.76 0 36.36 19.44 36.36 54.36 0 47.88-22.68 203.4-87.84 203.4Zm-4.68-51.48c0 15.48 3.6 20.88 9 20.88 27.36 0 51.84-136.08 51.84-175.68 0-15.48-3.6-20.88-9-20.88-27.36 0-51.84 136.08-51.84 175.68Zm80.525 48.6 53.64-252h48.24l-7.92 128.88c-1.08 18-3.6 45-8.28 81.36 10.44-36.36 19.08-63.36 25.56-81.36L905.079 3h49.32l-53.64 252h-30.6l34.56-162.36c3.6-16.56 7.56-32.04 12.6-50.04L840.279 255h-33.84l12.96-212.4c-2.16 18-4.68 32.76-8.28 49.32L776.559 255h-29.52Zm204.781-76.68 12.96-99.72L980.98 3h36l-16.2 75.6-29.52 99.72h-19.44ZM926.62 255l9-43.56h37.44l-9 43.56h-37.44Z"/></svg>