<svg xmlns="http://www.w3.org/2000/svg" width="334" height="86" fill="none"><path fill="#00D9B5" d="M.44 85 18.32 1h12.96c8.04 0 14.76 4.8 14.76 17.28 0 11.04-5.28 19.92-14.28 23.04 5.4 2.16 7.92 7.44 7.92 15.36 0 15.84-10.2 28.32-23.4 28.32H.44Zm13.2-10.2h3.24c6.48 0 11.88-8.88 11.88-18.72 0-5.88-1.92-9.84-5.76-9.84h-3.24L13.64 74.8Zm8.16-38.28h2.52c5.64 0 10.8-9.12 10.8-18 0-5.28-1.8-7.32-5.04-7.32H27.2l-5.4 25.32Zm41.858 49.44c-7.92 0-12.12-6.48-12.12-18.12 0-15.96 7.56-67.8 29.28-67.8 7.92 0 12.12 6.48 12.12 18.12 0 15.96-7.56 67.8-29.28 67.8Zm-1.56-17.16c0 5.16 1.2 6.96 3 6.96 9.12 0 17.28-45.36 17.28-58.56 0-5.16-1.2-6.96-3-6.96-9.12 0-17.28 45.36-17.28 58.56Zm49.162 17.16c-7.92 0-12.12-6.48-12.12-18.12 0-15.96 7.56-67.8 29.28-67.8 7.92 0 12.12 6.48 12.12 18.12 0 15.96-7.56 67.8-29.28 67.8ZM109.7 68.8c0 5.16 1.2 6.96 3 6.96 9.12 0 17.28-45.36 17.28-58.56 0-5.16-1.2-6.96-3-6.96-9.12 0-17.28 45.36-17.28 58.56Zm49.162 17.16c-7.92 0-12.12-6.48-12.12-18.12 0-15.96 7.56-67.8 29.28-67.8 7.92 0 12.12 6.48 12.12 18.12 0 15.96-7.56 67.8-29.28 67.8Zm-1.56-17.16c0 5.16 1.2 6.96 3 6.96 9.12 0 17.28-45.36 17.28-58.56 0-5.16-1.2-6.96-3-6.96-9.12 0-17.28 45.36-17.28 58.56Zm49.161 17.16c-7.92 0-12.12-6.48-12.12-18.12 0-15.96 7.56-67.8 29.28-67.8 7.92 0 12.12 6.48 12.12 18.12 0 15.96-7.56 67.8-29.28 67.8Zm-1.56-17.16c0 5.16 1.2 6.96 3 6.96 9.12 0 17.28-45.36 17.28-58.56 0-5.16-1.2-6.96-3-6.96-9.12 0-17.28 45.36-17.28 58.56ZM237.745 85l17.88-84h16.08l-2.64 42.96c-.36 6-1.2 15-2.76 27.12 3.48-12.12 6.36-21.12 8.52-27.12L290.425 1h16.44l-17.88 84h-10.2l11.52-54.12c1.2-5.52 2.52-10.68 4.2-16.68L268.825 85h-11.28l4.32-70.8c-.72 6-1.56 10.92-2.76 16.44L247.585 85h-9.84Zm74.26-25.56 4.32-33.24 5.4-25.2h12l-5.4 25.2-9.84 33.24h-6.48Zm-8.4 25.56 3-14.52h12.48l-3 14.52h-12.48Z"/></svg>