<svg xmlns="http://www.w3.org/2000/svg" width="996" height="258" fill="none"><path fill="#00D9B5" d="M39.52 257.88c-24.48 0-38.88-20.52-38.88-57.6C.64 151.68 22.96.12 89.92.12c38.88 0 40.32 50.76 29.88 95.4H86.68c9.72-45.36 9.72-64.8-1.44-64.8-28.8 0-52.92 132.48-52.92 172.08 0 19.08 5.4 24.48 11.16 24.48 10.8 0 21.24-19.44 28.08-59.76h32.76c-11.88 62.28-35.28 90.36-64.8 90.36Zm68.034-2.88 53.64-252h33.12l-47.16 221.4h38.88l-6.48 30.6h-72Zm77.057 0 86.4-252h45.72l-20.88 252h-33.12l7.92-67.32h-31.68L218.091 255h-33.48Zm64.08-97.92h25.2l7.92-67.32c2.16-18 4.68-42.12 7.2-63.72-6.12 21.6-13.68 45.72-19.44 63.72l-20.88 67.32ZM312.515 255l53.64-252h38.88c31.68 0 45.36 23.04 45.36 55.8 0 45-25.2 96.12-68.76 96.12h-14.76L345.635 255h-33.12Zm60.84-130.68h10.08c24.48 0 34.2-45.72 34.2-67.32 0-15.84-5.4-23.4-16.2-23.4h-8.64l-19.44 90.72Zm143.587 133.56c-24.48 0-38.88-20.52-38.88-57.6 0-48.6 22.32-200.16 89.28-200.16 38.88 0 40.32 50.76 29.88 95.4h-33.12c9.72-45.36 9.72-64.8-1.44-64.8-28.8 0-52.92 132.48-52.92 172.08 0 19.08 5.4 24.48 11.16 24.48 10.8 0 21.24-19.44 28.08-59.76h32.76c-11.88 62.28-35.28 90.36-64.8 90.36Zm68.034-2.88 53.64-252h33.12l-47.16 221.4h38.88l-6.48 30.6h-72Zm77.057 0 86.4-252h45.72l-20.88 252h-33.12l7.92-67.32h-31.68L695.513 255h-33.48Zm64.08-97.92h25.2l7.92-67.32c2.16-18 4.68-42.12 7.2-63.72-6.12 21.6-13.68 45.72-19.44 63.72l-20.88 67.32ZM789.937 255l53.64-252h38.88c31.68 0 45.36 23.04 45.36 55.8 0 45-25.2 96.12-68.76 96.12h-14.76L823.057 255h-33.12Zm60.84-130.68h10.08c24.48 0 34.2-45.72 34.2-67.32 0-15.84-5.4-23.4-16.2-23.4h-8.64l-19.44 90.72Zm79.254 54 12.96-99.72 16.2-75.6h36l-16.2 75.6-29.52 99.72h-19.44Zm-25.2 76.68 9-43.56h37.44l-9 43.56h-37.44Z"/></svg>