<svg xmlns="http://www.w3.org/2000/svg" width="387" height="86" fill="none"><path fill="#00D9B5" d="M13.84 85.96C5.68 85.96.88 79.12.88 66.76.88 50.56 8.32.04 30.64.04c12.96 0 13.44 16.92 9.96 31.8H29.56c3.24-15.12 3.24-21.6-.48-21.6-9.6 0-17.64 44.16-17.64 57.36 0 6.36 1.8 8.16 3.72 8.16 3.6 0 7.08-6.48 9.36-19.92h10.92c-3.96 20.76-11.76 30.12-21.6 30.12ZM42.518 85l17.88-84h11.04l-15.72 73.8h12.96L66.518 85h-24Zm31.686 0 28.8-84h15.24l-6.96 84h-11.04l2.64-22.44h-10.56L85.364 85h-11.16Zm21.36-32.64h8.4l2.64-22.44c.72-6 1.56-14.04 2.4-21.24-2.04 7.2-4.56 15.24-6.48 21.24l-6.96 22.44ZM122.838 85l17.88-84h12.96c10.56 0 15.12 7.68 15.12 18.6 0 15-8.4 32.04-22.92 32.04h-4.92L133.878 85h-11.04Zm20.28-43.56h3.36c8.16 0 11.4-15.24 11.4-22.44 0-5.28-1.8-7.8-5.4-7.8h-2.88l-6.48 30.24Zm59.863 44.52c-8.16 0-12.96-6.84-12.96-19.2 0-16.2 7.44-66.72 29.76-66.72 12.96 0 13.44 16.92 9.96 31.8h-11.04c3.24-15.12 3.24-21.6-.48-21.6-9.6 0-17.64 44.16-17.64 57.36 0 6.36 1.8 8.16 3.72 8.16 3.6 0 7.08-6.48 9.36-19.92h10.92c-3.96 20.76-11.76 30.12-21.6 30.12Zm28.678-.96 17.88-84h11.04l-15.72 73.8h12.96l-2.16 10.2h-24Zm31.685 0 28.8-84h15.24l-6.96 84h-11.04l2.64-22.44h-10.56L274.504 85h-11.16Zm21.36-32.64h8.4l2.64-22.44c.72-6 1.56-14.04 2.4-21.24-2.04 7.2-4.56 15.24-6.48 21.24l-6.96 22.44ZM311.979 85l17.88-84h12.96c10.56 0 15.12 7.68 15.12 18.6 0 15-8.4 32.04-22.92 32.04h-4.92L323.019 85h-11.04Zm20.28-43.56h3.36c8.16 0 11.4-15.24 11.4-22.44 0-5.28-1.8-7.8-5.4-7.8h-2.88l-6.48 30.24Zm32.418 18 4.32-33.24 5.4-25.2h12l-5.4 25.2-9.84 33.24h-6.48Zm-8.4 25.56 3-14.52h12.48l-3 14.52h-12.48Z"/></svg>