<svg xmlns="http://www.w3.org/2000/svg" width="822" height="262" fill="none"><path fill="#00D9B5" d="M36.895 261.92C12.805 261.92.03 242.21.03 206.805.03 158.26 23.025.58 89.09.58c24.09 0 36.865 19.71 36.865 55.115 0 48.545-22.995 206.225-89.06 206.225Zm-4.745-52.195c0 15.695 3.65 21.17 9.125 21.17 27.74 0 52.56-137.97 52.56-178.12 0-15.695-3.65-21.17-9.125-21.17-27.74 0-52.56 137.97-52.56 178.12ZM113.793 259 168.178 3.5h33.58l-23.36 109.865h33.58L235.338 3.5h33.58L214.533 259h-33.58l24.455-114.61h-33.58L147.373 259h-33.58Zm188.055 0 20.805-97.455L315.718 3.5h33.58l-1.095 93.075c0 8.03-.73 21.9-1.46 30.295 2.92-8.395 7.665-22.265 10.95-30.295L394.558 3.5h35.77l-74.825 161.695L335.428 259h-33.58Zm87.121 0L443.354 3.5h72.635l-6.57 31.025h-39.055l-16.425 77.38h36.135l-6.57 31.025h-36.135l-18.25 85.045h41.245L463.794 259h-74.825Zm84.187 0 87.6-255.5h46.355L585.941 259h-33.58l8.03-68.255h-32.12L507.101 259h-33.945Zm64.97-99.28h25.55l8.03-68.255c2.19-18.25 4.745-42.705 7.3-64.605-6.205 21.9-13.87 46.355-19.71 64.605l-21.17 68.255Zm64.71 99.28L657.221 3.5h33.58l-23.36 109.865h33.58L724.381 3.5h33.58L703.576 259h-33.58l24.455-114.61h-33.58L636.416 259h-33.58Zm152.733-77.745 13.14-101.105L785.134 3.5h36.5l-16.425 76.65-29.93 101.105h-19.71ZM730.019 259l9.125-44.165h37.96L767.979 259h-37.96Z"/></svg>