<svg xmlns="http://www.w3.org/2000/svg" width="744" height="258" fill="none"><path fill="#F50" d="M47.76 257.88c-35.28 0-47.52-36-35.28-95.04h32.76c-8.28 44.64-6.84 64.44 6.84 64.44 13.32 0 24.12-18.72 24.12-44.64 0-16.2-3.96-28.44-11.52-38.16l-9-11.88C42.36 114.96 36.6 96.24 36.6 75 36.6 31.8 62.16.12 95.64.12 128.4.12 141 30 129.84 85.44H97.08c7.92-37.8 6.84-54.72-6.48-54.72-12.96 0-22.32 16.92-22.32 39.96 0 14.76 3.96 26.64 10.08 34.56l9 11.88c14.76 19.44 20.52 36.72 20.52 59.04 0 47.16-24.84 81.72-60.12 81.72Zm67.818-2.88 53.64-252h48.24l-7.92 128.88c-1.08 18-3.6 45-8.28 81.36 10.44-36.36 19.08-63.36 25.56-81.36L273.618 3h49.32l-53.64 252h-30.6l34.56-162.36c3.6-16.56 7.56-32.04 12.6-50.04L208.818 255h-33.84l12.96-212.4c-2.16 18-4.68 32.76-8.28 49.32L145.098 255h-29.52Zm170.221 0 86.4-252h45.72l-20.88 252h-33.12l7.92-67.32h-31.68L319.279 255h-33.48Zm64.08-97.92h25.2l7.92-67.32c2.16-18 4.68-42.12 7.2-63.72-6.12 21.6-13.68 45.72-19.44 63.72l-20.88 67.32Zm113.563 100.8c-24.48 0-38.88-20.52-38.88-57.6 0-48.6 22.32-200.16 89.28-200.16 38.88 0 40.32 50.76 29.88 95.4h-33.12c9.72-45.36 9.72-64.8-1.44-64.8-28.8 0-52.92 132.48-52.92 172.08 0 19.08 5.4 24.48 11.16 24.48 10.8 0 21.24-19.44 28.08-59.76h32.76c-11.88 62.28-35.28 90.36-64.8 90.36Zm68.034-2.88 53.64-252h33.12l-25.56 120.24 20.16-37.44 45-82.8h36.36l-64.44 113.04L643.076 255h-32.76l-9-104.4-21.6 33.48-15.12 70.92h-33.12Zm147.125-76.68 12.96-99.72 16.2-75.6h36l-16.2 75.6-29.52 99.72h-19.44Zm-25.2 76.68 9-43.56h37.44l-9 43.56h-37.44Z"/></svg>