<svg xmlns="http://www.w3.org/2000/svg" width="713" height="252" fill="none"><path fill="#F50" d="M0 252 47.16 30.6h-34.2L19.44 0h101.88l-6.48 30.6h-34.2L33.48 252H0Zm63.87 0L150.268 0h45.72l-20.88 252h-33.12l7.92-67.32h-31.68L97.349 252H63.87Zm64.079-97.92h25.2l7.92-67.32c2.16-18 4.68-42.12 7.2-63.72-6.12 21.6-13.68 45.72-19.44 63.72l-20.88 67.32ZM206.3 138.6l7.56-35.28h48.24l-7.56 35.28H206.3ZM255.757 252 309.398 0h39.6c32.04 0 43.92 26.28 43.92 59.4 0 43.2-20.52 192.6-88.92 192.6h-48.241Zm39.601-30.6h10.44c34.56 0 54.72-129.6 54.72-163.8 0-16.2-4.32-27-15.12-27h-9.36l-40.68 190.8Zm72.964 30.6 86.4-252h45.72l-20.88 252h-33.12l7.92-67.32h-31.68L401.802 252h-33.48Zm64.08-97.92h25.2l7.92-67.32c2.16-18 4.68-42.12 7.2-63.72-6.12 21.6-13.68 45.72-19.44 63.72l-20.88 67.32ZM496.226 252l53.64-252h33.12l-23.04 108.36h33.12L616.106 0h33.12l-53.64 252h-33.12l24.12-113.04h-33.12L529.346 252h-33.12Zm150.641-76.68 12.96-99.72 16.2-75.6h36l-16.2 75.6-29.52 99.72h-19.44Zm-25.2 76.68 9-43.56h37.44l-9 43.56h-37.44Z"/></svg>