<svg xmlns="http://www.w3.org/2000/svg" width="72" height="67" fill="none"><path stroke="#fff" stroke-width="3" d="M2 28.504v13.62h11.597L30.923 57V25.5"/><path stroke="#fff" stroke-width="3" d="m2 28.505.001-3.442h11.597l17.326-14.876V25.5M46.35 10.958c6.535 4.435 11.826 13.666 11.826 22.766 0 9.1-6.536 17.74-11.826 21.583M40.435 19.826c3.268 2.661 5.914 8.2 5.914 13.66 0 5.46-3.268 10.643-5.913 12.95"/><path stroke="#fff" stroke-width="3" d="M52.26 2.088C62.063 8.297 70 21.22 70 33.96c0 12.74-9.804 24.835-17.74 30.216M66.506 5 6 65.506M66.506 65.506 6 5"/></svg>