<svg width="1235" height="777" viewBox="0 0 1235 777" fill="none" xmlns="http://www.w3.org/2000/svg">
<path d="M1221.11 447.186C1223.46 438.204 1225.87 431.843 1225.7 422.324C1225.52 413.109 1224.04 404.301 1223.04 395.435C1219.03 360.018 1178.05 318.916 1159.12 301.394C1167.77 290.932 1179.88 278.547 1193.66 276.31C1200.34 275.227 1207.19 275.285 1213.88 276.066C1218.06 276.555 1229.23 277.021 1232.28 280.178C1221.78 269.81 1207.7 263.146 1193.03 261.608C1178.8 260.116 1158.33 270.998 1145.73 263.693C1141.98 261.526 1139.23 257.856 1135.36 255.887C1131 253.662 1125.85 253.884 1120.98 254.28C1116.12 254.676 1111.04 255.165 1106.49 253.394C1098.82 250.4 1096.2 236.792 1092.03 230.152C1090.67 227.996 1089.16 225.899 1087.7 223.791C1082.37 216.008 1077.38 211.395 1068.2 208.086C1059.85 205.08 1051.04 207.841 1043.35 205.721C1056.07 209.228 1067.52 217.208 1075.19 227.938C1084.19 240.497 1086.62 256.458 1085.84 271.604C1073.04 264.683 1046.21 252.835 1037.71 248.909C1036.36 248.28 1026.38 264.217 1025.37 265.883C1021.41 272.384 1018.01 279.223 1015.24 286.318C1009.52 300.916 1006.06 316.551 1007.89 332.267C1011.09 359.797 1016.73 390.204 1038.99 408.355C1037.71 402.845 1036.44 397.346 1035.16 391.835C1040.62 396.542 1046.08 401.249 1051.53 405.955C1049.93 401.039 1048.32 396.123 1046.7 391.206C1052.01 392.942 1057.32 394.678 1062.64 396.414C1048.12 373.801 1041.4 346.282 1043.85 319.51C1055.05 335.739 1065.77 352.096 1077.56 367.859C1079.49 370.457 1081.46 373.101 1082.57 376.142C1082.57 376.142 1073.68 437.912 1075.47 447.466C1075.47 447.466 1113.38 504.739 1116.87 509.853C1118.83 512.696 1122.35 516.436 1123.13 519.896C1123.13 519.896 1120.71 533.189 1121.93 534.389C1127 539.329 1141.35 552.994 1143.64 554.544C1144.77 551.492 1150.89 539.48 1151.33 537.255C1151.54 536.183 1150.96 535.915 1150.43 535.134C1145.9 528.401 1144.33 520.502 1141.17 513.15C1137.33 504.203 1134.3 494.906 1132.1 485.422C1127.16 464.137 1129.83 444.064 1129.43 422.802C1134.29 427.276 1139.13 431.738 1143.99 436.211C1147.04 439.019 1154.64 444.833 1154.64 444.833C1154.64 444.833 1160 436.398 1161.05 433.136C1162.09 429.874 1162.86 426.274 1165.34 423.909C1167.83 421.532 1172.79 421.485 1174.01 424.701C1170.67 419.132 1167.32 413.563 1163.98 407.994C1161.9 412.468 1157.96 416.033 1153.31 417.687C1157.08 416.849 1155.42 383.424 1155.49 380.127C1166.42 391.02 1180.48 399.594 1184.74 413.435" fill="#50329F"/>
<path d="M1223.62 447.873C1225.68 440.149 1228.1 432.518 1228.31 424.456C1228.54 415.439 1226.99 406.386 1225.89 397.474C1224.24 383.948 1219.38 371.738 1212.45 360.053C1198.95 337.253 1180.31 317.506 1160.97 299.553V303.234C1169.34 293.203 1179.42 282.194 1192.65 279.153C1199.88 277.487 1207.51 278.046 1214.82 278.769C1219.44 279.223 1226.69 278.885 1230.45 282.019C1232.98 284.128 1236.59 280.703 1234.13 278.338C1223.47 268.109 1209.92 261.223 1195.22 259.278C1180.52 257.332 1168.01 264.928 1154.14 263.542C1145.88 262.714 1142 255.526 1134.71 252.8C1126.94 249.876 1118.81 253.045 1110.88 251.775C1102.96 250.505 1100.65 243.002 1097.9 236.466C1095.33 230.361 1091.97 225.014 1087.97 219.725C1083.98 214.435 1078.98 209.985 1072.78 207.166C1063.31 202.855 1053.82 205.418 1044.04 203.239C1040.78 202.517 1039.43 207.317 1042.66 208.261C1055.63 212.059 1067.28 220.156 1074.55 231.678C1081.82 243.2 1083.82 257.833 1083.24 271.639L1087.16 269.39C1073.76 262.213 1059.79 256.109 1045.95 249.852C1042.7 248.385 1038.56 245.018 1035.21 247.406C1031.46 250.074 1028.73 255.852 1026.27 259.639C1017.08 273.817 1009.9 289.475 1006.6 306.112C1003 324.321 1005.81 343.288 1009.98 361.195C1014.32 379.8 1022.25 397.719 1037.14 410.219C1039.09 411.862 1042.1 410.336 1041.48 407.691C1040.2 402.181 1038.93 396.682 1037.65 391.171L1033.3 393.699C1038.77 398.406 1044.23 403.113 1049.68 407.819C1051.51 409.392 1054.9 407.936 1054.03 405.291C1052.42 400.375 1050.81 395.458 1049.19 390.542L1045.99 393.746C1051.3 395.482 1056.61 397.218 1061.92 398.954C1064.07 399.653 1066.05 397.02 1064.86 395.132C1050.62 372.531 1044.22 346.166 1046.42 319.545L1041.57 320.861C1052.29 336.414 1062.69 352.189 1073.92 367.393C1076.26 370.562 1079.7 373.719 1079.81 377.004C1079.89 379.591 1079.04 382.527 1078.69 385.078C1076.21 403.334 1073.41 421.765 1072.68 440.196C1072.5 444.518 1072.43 447.664 1074.8 451.24C1078.98 457.555 1083.15 463.869 1087.33 470.172C1096.27 483.663 1104.98 497.352 1114.22 510.645C1115.82 512.952 1117.5 515.212 1119.14 517.484C1120.79 519.756 1120.34 520.502 1119.92 523.251C1119.39 526.781 1117.8 532.21 1119.56 535.577C1120.52 537.395 1122.86 538.967 1124.32 540.365C1126.67 542.626 1129.05 544.874 1131.42 547.111C1134.93 550.408 1138.39 553.961 1142.29 556.816C1143.78 557.911 1145.56 556.653 1146.11 555.254C1147.47 551.794 1149.23 548.486 1150.79 545.107C1151.84 542.847 1153.8 539.853 1153.89 537.266C1153.95 535.414 1153 534.435 1152.1 532.979C1150.11 529.764 1148.7 526.315 1147.42 522.762C1145.24 516.692 1142.78 510.762 1140.54 504.715C1135.79 491.853 1132.62 478.537 1131.89 464.813C1131.15 451.089 1132.19 436.805 1131.99 422.802L1127.55 424.643C1135.95 432.378 1144.22 440.126 1153.29 447.081C1154.43 447.955 1156.18 447.221 1156.85 446.149C1158.54 443.481 1160.19 440.755 1161.65 437.947C1162.35 436.607 1163 435.244 1163.51 433.823C1164.14 432.075 1168.21 420.052 1171.72 426.006L1176.21 423.373C1172.87 417.804 1169.53 412.235 1166.18 406.666C1165.22 405.058 1162.62 404.895 1161.69 406.666C1159.62 410.592 1156.72 413.47 1152.58 415.159L1154.58 419.912C1159.34 417.862 1158.25 406.084 1158.32 402.216C1158.46 394.841 1157.98 387.478 1158.05 380.103L1153.61 381.944C1163.69 391.8 1177.46 400.165 1182.19 414.111C1183.26 417.268 1188.29 415.916 1187.21 412.724C1182.09 397.649 1168.17 388.911 1157.29 378.263C1155.67 376.678 1152.87 377.831 1152.86 380.103C1152.81 385.859 1153.16 391.625 1153.16 397.381C1153.16 401.074 1153.12 404.767 1152.89 408.449C1152.79 410.045 1152.72 411.699 1152.4 413.272C1152.22 414.227 1151.63 415.555 1151.97 415.404C1149.29 416.557 1151.24 421.276 1153.97 420.157C1159.39 417.944 1163.46 414.483 1166.19 409.264H1161.7C1165.04 414.833 1168.38 420.402 1171.73 425.971C1173.45 428.837 1177.94 426.239 1176.22 423.338C1172.66 417.291 1164.77 419.295 1161.51 424.549C1159.34 428.033 1158.78 432.25 1156.85 435.873C1155.46 438.471 1153.93 441 1152.35 443.481L1155.92 442.549C1147.21 435.873 1139.31 428.347 1131.24 420.926C1129.63 419.446 1126.76 420.437 1126.8 422.767C1126.98 436.06 1126.05 449.353 1126.6 462.634C1127.15 475.916 1129.64 488.626 1133.82 501.139C1135.78 507.022 1138.34 512.649 1140.45 518.463C1142.43 523.927 1144.05 529.705 1147.09 534.715C1148.43 536.905 1148.67 536.8 1147.83 539.13C1147.21 540.878 1146.27 542.567 1145.48 544.245C1143.99 547.414 1142.41 550.559 1141.11 553.821L1144.93 552.26C1141.6 549.825 1138.64 546.68 1135.65 543.86C1133.58 541.915 1131.51 539.958 1129.45 537.989C1128.06 536.661 1124.93 534.645 1124.18 532.863C1122.98 530.008 1125.1 524.544 1125.45 521.55C1126.05 516.354 1121.93 512.498 1119.11 508.502C1110.44 496.211 1102.42 483.43 1094.11 470.894C1089.73 464.277 1085.34 457.66 1080.96 451.042C1080.02 449.609 1078.59 448.06 1077.93 446.464C1077.63 445.741 1078.05 447.233 1077.87 445.66C1077.73 444.378 1077.81 443.027 1077.85 441.734C1078.27 423.559 1081.18 405.28 1083.61 387.28C1084.57 380.173 1086.22 376.026 1082.08 369.676C1076.43 361.032 1069.87 352.888 1064.01 344.372C1058.15 335.855 1052.09 326.873 1046.09 318.158C1044.59 315.98 1041.46 316.854 1041.25 319.475C1038.98 346.923 1045.72 374.383 1060.4 397.684L1063.33 393.862C1058.02 392.126 1052.71 390.391 1047.4 388.655C1045.56 388.049 1043.59 390.006 1044.19 391.858C1045.8 396.775 1047.41 401.691 1049.03 406.608L1053.37 404.08C1047.91 399.373 1042.45 394.666 1037 389.959C1035.04 388.282 1032.03 389.866 1032.65 392.488C1033.93 397.998 1035.2 403.497 1036.48 409.008L1040.83 406.48C1028.43 396.076 1021.1 381.886 1016.74 366.496C1012.38 351.106 1008.96 333.409 1010.25 317.285C1011.69 299.273 1018.72 281.518 1028.18 266.256C1030.55 262.423 1033 258.625 1035.64 254.967C1036.3 254.058 1037.43 253.08 1037.85 252.089C1038.61 250.26 1038.75 252.241 1037.11 251.46C1039.36 252.532 1041.64 253.522 1043.92 254.548C1057.56 260.722 1071.34 266.757 1084.55 273.829C1086.33 274.784 1088.38 273.584 1088.46 271.58C1089.11 256.283 1086.84 240.276 1078 227.391C1069.88 215.554 1057.75 207.201 1044.04 203.193L1042.66 208.214C1053.62 210.661 1064.25 207.55 1074.41 213.853C1081.81 218.443 1087.8 226.901 1091.49 234.66C1094.47 240.94 1096.3 248.513 1101.66 253.324C1108.21 259.196 1117.72 256.68 1125.61 256.621C1132.33 256.575 1135.91 259.324 1140.87 263.355C1143.75 265.697 1146.81 267.398 1150.47 268.202C1158.39 269.938 1166.79 267.876 1174.56 266.279C1184.54 264.229 1193.23 263.355 1203.19 266.175C1213.15 268.994 1222.73 274.574 1230.45 281.984L1234.13 278.303C1229.87 274.749 1223.74 274.4 1218.44 273.864C1210.68 273.083 1202.98 272.408 1195.21 273.444C1179.18 275.6 1167.2 287.646 1157.29 299.518C1156.42 300.566 1156.19 302.174 1157.29 303.199C1175.52 320.116 1193.03 338.57 1206.21 359.762C1213.22 371.028 1218.88 383.144 1220.57 396.414C1221.62 404.639 1222.87 412.911 1223.08 421.217C1223.3 430.013 1220.85 438.052 1218.61 446.452C1217.75 449.691 1222.77 451.077 1223.63 447.838L1223.62 447.873Z" fill="#50329F"/>
<path d="M1184.74 413.412C1188.93 427.043 1183.29 444.192 1176.68 456.902C1173.51 462.995 1169.08 468.564 1163.26 472.211C1157.44 475.857 1150.14 477.419 1143.54 475.531C1149.97 479.457 1156.4 483.372 1162.83 487.298C1156.8 488.883 1150.78 490.467 1144.76 492.051C1150.76 493.776 1156.76 495.512 1162.76 497.236C1159.04 498.063 1155.32 498.902 1151.61 499.729C1154.92 501.838 1159.55 502.84 1163.54 502.537C1168.73 502.152 1173.9 500.778 1178.71 498.809C1200.64 489.78 1215.2 469.694 1221.09 447.174" fill="#50329F"/>
<path d="M1182.22 414.111C1185.75 426.949 1181.6 440.662 1176.05 452.324C1170.18 464.661 1159.27 476.58 1144.22 473.026C1141.37 472.351 1139.66 476.219 1142.22 477.78C1148.65 481.706 1155.08 485.62 1161.51 489.547L1162.13 484.793C1156.1 486.378 1150.08 487.962 1144.06 489.547C1141.54 490.211 1141.63 493.869 1144.06 494.568C1150.06 496.292 1156.06 498.028 1162.06 499.752V494.731C1158.34 495.558 1154.63 496.397 1150.91 497.224C1148.72 497.714 1148.38 500.917 1150.29 501.978C1165.45 510.459 1185.2 500.521 1197.24 490.63C1210.49 479.725 1219.15 464.277 1223.6 447.873C1224.47 444.635 1219.46 443.26 1218.58 446.487C1214.78 460.479 1207.88 473.551 1197.31 483.617C1186.96 493.461 1167.14 505.438 1152.91 497.48L1152.3 502.234C1156.01 501.407 1159.73 500.568 1163.44 499.741C1166.02 499.158 1165.82 495.407 1163.44 494.719C1157.44 492.995 1151.45 491.259 1145.45 489.535V494.556C1151.47 492.972 1157.49 491.387 1163.51 489.803C1165.72 489.22 1166.02 486.191 1164.13 485.05C1157.7 481.123 1151.27 477.209 1144.84 473.283L1142.84 478.036C1158.52 481.741 1171.85 471.535 1178.91 458.207C1185.97 444.879 1191.45 428.044 1187.23 412.713C1186.35 409.485 1181.32 410.86 1182.21 414.099L1182.22 414.111Z" fill="#50329F"/>
<path d="M1110.07 336.496C1104.72 322.388 1102.11 307.254 1102.41 292.167C1102.41 292.038 1097.09 289.394 1096.35 289.487C1093.03 289.906 1094.41 289.883 1093.63 292.97C1092.5 297.409 1094.53 304.318 1095.6 308.652C1098.14 318.892 1103.09 328.562 1110.07 336.484V336.496Z" fill="white" stroke="white" stroke-width="0.42" stroke-miterlimit="10"/>
<path d="M1132.13 345.502C1126.79 331.393 1124.18 316.259 1124.48 301.172C1124.48 301.044 1119.16 298.399 1118.41 298.493C1115.09 298.912 1116.48 298.889 1115.7 301.976C1114.57 306.415 1116.59 313.324 1117.66 317.657C1120.2 327.898 1125.15 337.568 1132.13 345.49V345.502Z" fill="white" stroke="white" stroke-width="0.42" stroke-miterlimit="10"/>
<path d="M1103 373.94C1098.48 373.02 1093.77 372.729 1089.17 372.775C1085.33 372.81 1078.29 372.531 1074.97 374.849C1071.67 377.144 1070.66 384.67 1070.3 388.41C1069.94 392.15 1068.91 410.942 1070.87 414.309C1072.83 417.676 1077.95 420.052 1081.26 421.87C1093.49 428.58 1115.02 435.477 1124.48 420.495C1126.74 416.918 1128.58 398.895 1128.68 394.666C1128.85 388.026 1126.76 384.321 1121.38 380.826C1115.8 377.202 1109.49 375.268 1103 373.94Z" fill="#FF4600"/>
<path d="M1103.32 372.74C1095.52 371.307 1086.28 370.422 1078.44 372.193C1071.79 373.696 1070.23 379.591 1069.37 385.719C1068.61 391.136 1068.49 396.705 1068.47 402.169C1068.45 407.004 1067.78 413.179 1071.41 416.942C1076.09 421.8 1083.88 424.945 1090.15 427.287C1096.42 429.629 1104.02 431.423 1111.05 430.363C1116.85 429.489 1122.88 426.25 1125.68 420.845C1128.17 416.033 1128.42 409.707 1129.06 404.406C1129.78 398.301 1131.2 390.973 1127.86 385.393C1123.1 377.47 1111.68 374.523 1103.32 372.729C1101.77 372.391 1101.11 374.779 1102.67 375.117C1111.25 376.958 1125.14 380.29 1127.18 390.507C1128.32 396.262 1126.84 403.171 1126 408.845C1124.94 416.056 1123.85 422.429 1116.66 426.076C1109.47 429.722 1100.81 428.184 1093.55 425.843C1087.68 423.955 1074.97 419.505 1071.93 413.668C1069.58 409.124 1070.89 401.109 1071.08 396.239C1071.29 390.624 1071.04 383.342 1073.82 378.321C1077.89 370.9 1096.15 373.917 1102.67 375.105C1104.23 375.385 1104.9 373.008 1103.32 372.717V372.74Z" fill="#FF4600"/>
<path d="M1148.27 449.446C1147.22 444.774 1146.53 440.056 1146.5 435.326C1146.5 434.557 1146.5 433.31 1146.68 432.658C1146.87 432.005 1146.79 431.54 1147.57 431.563C1147.57 431.563 1150.91 459.419 1167.79 507.605C1168.89 510.739 1178.52 527.329 1169.34 517.752C1167.38 515.702 1150.47 459.314 1148.26 449.434L1148.27 449.446Z" fill="#FF4600"/>
<path d="M1150.71 448.77C1150.41 447.349 1147.67 434.289 1148.85 433.776L1145.02 431.574C1147.8 454.374 1154.86 477.034 1162.07 498.727C1164.16 504.983 1166.52 510.645 1169.26 516.587C1169.56 517.251 1169.95 519.208 1170.52 519.581C1171.6 520.303 1173.52 519.127 1173.35 518.043C1173.28 517.612 1172 516.902 1171.65 516.47C1171.26 516.004 1170.92 515.271 1170.41 513.954C1166.47 503.807 1163.55 493.181 1160.41 482.766C1157 471.512 1153.33 460.223 1150.71 448.759C1149.98 445.567 1145.08 446.918 1145.8 450.11C1148.37 461.364 1151.97 472.456 1155.3 483.5C1158.65 494.568 1161.59 506.078 1166.06 516.762C1167.14 519.36 1169.85 523.461 1173.06 523.216C1178.03 522.843 1174.7 516.296 1173.63 514.001C1165.68 496.828 1160.56 478.246 1155.96 459.908C1153.71 450.972 1151.09 439.718 1150.1 431.563C1149.85 429.536 1148.15 428.534 1146.26 429.361C1140.74 431.796 1144.88 445.811 1145.79 450.11C1146.46 453.314 1151.38 451.963 1150.7 448.759L1150.71 448.77Z" fill="#FF4600"/>
<path d="M1184.74 413.412C1188.93 427.042 1183.29 444.192 1176.68 456.902C1173.51 462.995 1169.08 468.564 1163.26 472.211C1157.44 475.857 1150.14 477.419 1143.54 475.531C1149.97 479.457 1156.4 483.372 1162.83 487.298C1156.8 488.883 1150.78 490.467 1144.76 492.051C1150.76 493.776 1156.76 495.512 1162.76 497.236C1159.04 498.063 1155.32 498.902 1151.61 499.729C1154.92 501.838 1159.55 502.84 1163.54 502.537C1168.73 502.152 1173.9 500.778 1178.71 498.809C1200.64 489.78 1215.2 469.694 1221.09 447.174" fill="#50329F"/>
<path d="M1182.22 414.111C1185.75 426.949 1181.6 440.662 1176.05 452.324C1170.18 464.661 1159.27 476.58 1144.22 473.026C1141.37 472.351 1139.66 476.219 1142.22 477.78C1148.65 481.706 1155.08 485.62 1161.51 489.547L1162.13 484.793C1156.1 486.378 1150.08 487.962 1144.06 489.547C1141.54 490.211 1141.63 493.869 1144.06 494.568C1150.06 496.292 1156.06 498.028 1162.06 499.752V494.731C1158.34 495.558 1154.63 496.397 1150.91 497.224C1148.72 497.713 1148.38 500.917 1150.29 501.977C1165.45 510.459 1185.2 500.521 1197.24 490.63C1210.49 479.725 1219.15 464.277 1223.6 447.873C1224.47 444.635 1219.46 443.26 1218.58 446.487C1214.78 460.479 1207.88 473.551 1197.31 483.617C1186.96 493.461 1167.14 505.438 1152.91 497.48L1152.3 502.234C1156.01 501.407 1159.73 500.568 1163.44 499.741C1166.02 499.158 1165.82 495.407 1163.44 494.719C1157.44 492.995 1151.45 491.259 1145.45 489.535V494.556C1151.47 492.972 1157.49 491.387 1163.51 489.803C1165.72 489.22 1166.02 486.191 1164.13 485.05C1157.7 481.123 1151.27 477.209 1144.84 473.283L1142.84 478.036C1158.52 481.741 1171.85 471.535 1178.91 458.207C1185.97 444.879 1191.45 428.044 1187.23 412.713C1186.35 409.485 1181.32 410.86 1182.21 414.099L1182.22 414.111Z" fill="#50329F"/>
<path d="M1071.81 390.577C1065.29 347.878 1064.91 303.234 1070.72 261.794C1071.08 259.184 1070.5 257.798 1070.33 255.072C1058.04 296.163 1060.67 342.869 1068.84 389.33C1070.91 392.29 1069.76 393.058 1071.81 390.577Z" fill="#FF4600"/>
<path d="M1073.89 390.006C1070.42 366.903 1068.71 343.568 1068.79 320.209C1068.82 309.269 1069.25 298.341 1070.1 287.436C1070.93 276.753 1073.58 265.744 1072.48 255.072C1072.24 252.742 1068.96 252.019 1068.23 254.501C1061.48 277.557 1059.25 301.627 1059.82 325.591C1060.11 338.034 1061.15 350.453 1062.66 362.803C1063.41 368.907 1064.28 374.989 1065.25 381.059C1065.9 385.171 1065.88 390.402 1068.93 393.594C1069.78 394.48 1071.12 394.34 1071.99 393.594C1072.52 393.175 1072.97 392.686 1073.33 392.103C1075.08 389.959 1072.03 386.884 1070.27 389.039C1069.91 389.61 1069.46 390.111 1068.93 390.53H1071.99C1068.9 387.292 1069.03 377.564 1068.4 373.265C1067.46 366.857 1066.64 360.426 1065.99 353.972C1064.87 343.102 1064.17 332.185 1064.07 321.257C1063.85 299.087 1066.17 276.963 1072.4 255.643L1068.15 255.072C1069.24 265.697 1066.6 276.788 1065.77 287.436C1064.87 299.075 1064.44 310.737 1064.45 322.411C1064.48 345.432 1066.29 368.395 1069.71 391.148C1070.12 393.897 1074.29 392.721 1073.88 389.994L1073.89 390.006Z" fill="#FF4600"/>
<path d="M1128.27 389.167C1124.96 394.27 1121.03 401.598 1122.43 405.909C1123.31 408.635 1122.34 407.633 1124.75 405.431C1127.16 403.229 1129.22 399.688 1131.14 396.216C1145.17 370.83 1167.06 328.574 1169.75 299.879C1155.81 331.37 1146.54 360.939 1128.27 389.167Z" fill="#FF4600"/>
<path d="M1126.54 388.154C1122.87 393.967 1118.53 401.016 1121.01 408.076C1121.5 409.45 1123.23 410.091 1124.34 408.961C1130.75 402.367 1134.71 393.956 1138.99 385.917C1144.06 376.398 1148.92 366.775 1153.41 356.977C1161.7 338.919 1169.66 319.801 1171.73 299.879C1171.92 297.957 1168.79 297.095 1168.01 298.877C1154.78 328.947 1144.34 360.333 1126.53 388.165C1125.14 390.332 1128.59 392.336 1129.98 390.181C1147.79 362.348 1158.23 330.962 1171.46 300.893L1167.74 299.891C1165.69 319.638 1157.48 338.791 1149.21 356.628C1145.16 365.366 1140.82 373.964 1136.31 382.468C1131.81 390.973 1127.98 399.489 1121.52 406.142L1124.85 407.027C1122.77 401.12 1126.91 395.027 1129.98 390.181C1131.35 388.002 1127.9 385.998 1126.53 388.165L1126.54 388.154Z" fill="#FF4600"/>
<path d="M1031.45 401.901C1027.65 404.825 1023.68 407.447 1019.41 409.474C1018.71 409.8 1017.58 410.313 1016.91 410.429C1016.25 410.546 1015.85 410.802 1015.55 410.091C1015.55 410.091 1039.37 395.284 1075.89 359.61C1078.27 357.292 1089.23 341.552 1084.43 353.913C1083.41 356.558 1039.45 395.726 1031.44 401.901H1031.45Z" fill="#FF4600"/>
<path d="M1030.16 399.711C1025.94 402.891 1020.76 407.19 1015.41 408.122L1017.89 408.775L1017.34 408.297L1016.83 412.293C1036.29 400.142 1053.83 384.099 1070.41 368.418C1075.27 363.804 1079.37 359.109 1083.74 354.088C1084.16 353.61 1085.63 352.539 1085.74 351.944C1085.96 350.675 1083.88 349.544 1082.95 350.36C1082.56 350.709 1082.59 351.793 1082.32 352.317C1081.9 353.144 1081.23 353.808 1080.39 354.682C1072.79 362.488 1064.48 369.676 1056.36 376.934C1047.6 384.775 1038.92 392.872 1029.65 400.107C1027.06 402.122 1030.69 405.699 1033.25 403.707C1042.35 396.612 1050.88 388.666 1059.48 380.965C1068.08 373.265 1077.39 365.785 1085.07 357.152C1086.91 355.078 1089.47 350.686 1087.69 348.007C1084.98 343.894 1080.44 350.104 1078.85 352.026C1066.91 366.472 1052.02 378.822 1037.51 390.624C1030.05 396.693 1022.42 402.787 1014.25 407.889C1012.94 408.705 1012.45 410.767 1013.73 411.885C1018.63 416.173 1028.99 406.899 1032.72 404.091C1035.31 402.146 1032.77 397.719 1030.15 399.688L1030.16 399.711Z" fill="#FF4600"/>
<path d="M1007.89 332.255C1011.09 359.785 1016.73 390.192 1038.99 408.344C1037.71 402.833 1036.44 397.334 1035.16 391.824C1040.62 396.53 1046.08 401.237 1051.54 405.944C1049.93 401.027 1048.32 396.111 1046.7 391.194C1052.01 392.93 1057.32 394.666 1062.64 396.402C1048.12 373.789 1041.4 346.271 1043.85 319.498" fill="#50329F"/>
<path d="M1005.29 332.255C1008.62 360.414 1014.27 390.985 1037.15 410.184C1039.11 411.827 1042.11 410.301 1041.49 407.656C1040.21 402.146 1038.94 396.647 1037.66 391.136L1033.32 393.664C1038.78 398.371 1044.24 403.078 1049.69 407.784C1051.52 409.357 1054.91 407.901 1054.04 405.256C1052.43 400.34 1050.82 395.423 1049.21 390.507L1046 393.711C1051.31 395.447 1056.63 397.183 1061.94 398.919C1064.08 399.618 1066.06 396.985 1064.87 395.097C1050.64 372.496 1044.23 346.131 1046.43 319.51C1046.71 316.166 1041.51 316.189 1041.23 319.51C1038.95 346.958 1045.7 374.418 1060.38 397.719L1063.31 393.897C1058 392.161 1052.69 390.425 1047.38 388.69C1045.54 388.084 1043.57 390.041 1044.17 391.893C1045.78 396.81 1047.39 401.726 1049.01 406.643L1053.35 404.115C1047.89 399.408 1042.43 394.701 1036.97 389.994C1035.02 388.317 1032.01 389.901 1032.63 392.523C1033.91 398.033 1035.18 403.532 1036.46 409.043L1040.81 406.515C1019.01 388.224 1013.64 359.109 1010.47 332.267C1010.09 328.982 1004.87 328.947 1005.27 332.267L1005.29 332.255Z" fill="#50329F"/>
<path d="M572.414 148.017C566.508 144.696 560.893 140.223 555.686 136.227C547.567 129.982 542.512 124.436 531.969 122.957C522.755 121.664 513.739 122.934 503.709 122.235C508.706 116.875 511.654 109.361 508.916 102.114C508.497 101.008 507.938 99.9008 507.984 98.7125C508.089 95.9281 511.211 94.4951 513.284 92.631C517.024 89.2874 517.548 82.9496 514.414 79.0351C513.145 82.2855 510.384 84.9185 507.076 86.0253C503.767 87.1321 499.981 86.701 497.011 84.8835C493.633 82.8098 491.501 79.2098 489.952 75.5516C487.61 70.0526 486.294 64.111 486.096 58.1344C484.244 63.6333 482.228 69.0857 480.05 74.4565C478.827 77.4739 477.476 80.5729 475.053 82.7632C472.012 85.501 467.574 86.3864 463.544 85.6292C459.513 84.8719 455.89 82.635 452.908 79.8156C451.417 85.2564 453.898 91.5475 458.698 94.5067C460.573 95.6601 462.95 96.6038 463.52 98.7358C464.01 100.588 462.856 102.417 462.088 104.165C460.585 107.567 460.468 111.563 461.773 115.046C463.078 118.53 465.78 121.466 469.147 123.05C463.59 120.44 450.8 123.341 444.37 122.689C438.149 122.048 430.216 119.986 427.083 114.033C423.949 108.068 423.39 102.254 418.393 96.7669L403.529 120.056C408.072 128.316 408.84 138.953 418.369 144.766C420.99 146.362 442.18 153.772 442.89 149.566C442.89 149.566 439.349 170.35 434.608 175.663C429.972 180.859 409.155 194.059 404.041 204.323C399.486 213.457 399.929 247.243 392.753 253.464C387.838 257.728 381.535 259.965 375.396 262.097C406.301 267.188 438.033 267.246 468.96 262.283C465.687 253.883 449.949 220.354 452.501 215.798C456.682 208.319 474.517 204.358 474.517 204.358C481.937 223.919 500.704 223.558 509.86 242.35C521.147 241.86 532.447 241.371 543.735 240.882C546.064 245.717 548.394 250.551 550.712 255.386C550.444 249.41 551.248 222.521 550.142 222.171C545.68 220.773 530.653 213.026 526.762 211.907C525.085 211.43 522.767 156.976 521.59 149.578C521.602 149.391 538.772 152.572 540.019 152.852C545.995 154.168 550.375 154.448 554.743 158.91C557.853 162.079 560.672 165.224 563.992 168.09L572.414 148.04V148.017Z" fill="#50329F"/>
<path d="M573.347 146.409C562.164 139.885 553.147 129.306 541.44 123.819C529.838 118.39 516.069 121.07 503.698 120.359L505.014 123.539C508.02 120.079 510.524 116.188 511.421 111.621C511.817 109.606 511.91 107.52 511.643 105.493C511.246 102.452 508.928 99.5397 511.2 96.6271C513.471 93.7145 516.582 92.7475 517.77 88.7281C518.876 84.9884 518.154 81.2836 516.011 78.0914C515.3 77.0195 513.448 76.7516 512.796 78.0914C508.264 87.5282 497.664 85.7806 493.028 77.6953C489.673 71.8468 488.298 64.775 487.937 58.1343C487.821 56.0256 484.967 55.6295 484.279 57.645C482.019 64.2857 480.039 71.9866 476.37 77.9982C470.895 86.9456 460.877 84.4292 454.202 78.5108C453.223 77.6487 451.394 77.87 451.092 79.3263C450.299 83.1593 450.591 86.9223 452.478 90.4291C453.398 92.1417 454.61 93.7028 456.112 94.9494C459.397 97.6873 461.96 96.7436 460.469 103.233C459.455 107.637 458.337 111.015 459.968 115.547C461.424 119.613 464.464 122.631 468.204 124.658L469.637 121.256C460.655 117.796 450.428 122.13 441.12 120.347C433.781 118.937 429.506 115.675 426.734 108.685C424.823 103.85 423.076 99.4814 419.698 95.4387C418.894 94.4834 417.368 94.8912 416.774 95.8116C411.823 103.571 406.861 111.341 401.91 119.101C401.537 119.671 401.607 120.394 401.91 120.976C407.583 131.893 409.249 143.531 421.993 148.296C426.105 149.834 442.169 156.813 444.673 150.044L441.085 149.054C439.664 157.302 438.348 169.244 432.232 175.395C423.53 184.133 412.103 189.818 404.636 199.907C398.66 207.981 398.846 219.69 397.6 229.278C396.819 235.289 396.144 241.569 394.128 247.313C391.356 255.2 382.084 257.775 374.896 260.291C373.347 260.839 372.927 263.565 374.896 263.879C406.278 268.924 438.056 268.982 469.45 264.066C470.37 263.926 471.093 262.633 470.755 261.782C466.002 249.771 460.213 238.167 456.147 225.876C455.402 223.616 454.272 220.948 454.19 218.536C454.085 215.251 456.765 213.55 459.467 211.954C464.185 209.158 469.672 207.352 475.007 206.14L472.724 204.835C475.904 212.63 480.983 218.268 487.716 223.196C495.8 229.103 503.5 234.089 508.241 243.27C508.532 243.829 509.231 244.214 509.849 244.19C517.747 243.852 525.656 243.503 533.554 243.165C537.235 243.002 541.277 241.72 543.607 244.913C545.937 248.105 547.416 252.812 549.094 256.307C549.897 257.984 552.623 257.157 552.565 255.363C552.227 246.031 552.798 236.688 552.53 227.356C552.472 225.492 552.856 222.346 551.447 220.831C550.445 219.76 547.94 219.328 546.647 218.758C543.91 217.558 541.219 216.264 538.516 214.995C536.117 213.876 533.729 212.734 531.306 211.686C530.56 211.36 529.78 210.929 528.988 210.707C527.59 210.323 528.126 210.556 528.254 210.8C527.17 208.692 527.45 205.034 527.24 202.75C526.39 193.197 525.854 183.62 525.248 174.055C524.724 165.76 524.584 157.29 523.361 149.054L521.567 151.407C526.588 151.139 532.645 153.283 537.585 154.238C540.637 154.832 543.782 155.298 546.741 156.242C553.404 158.362 557.621 164.851 562.665 169.372C563.795 170.385 565.227 169.849 565.775 168.556C568.582 161.869 571.39 155.193 574.197 148.506C575.129 146.304 571.529 145.337 570.609 147.516C567.802 154.203 564.994 160.879 562.187 167.566L565.297 166.75C560.638 162.568 556.689 156.755 551.004 153.923C547.393 152.129 543.199 151.558 539.274 150.79C533.787 149.718 527.159 147.399 521.579 147.691C520.263 147.76 519.599 148.821 519.785 150.044C522.278 166.75 521.963 184.051 523.373 200.886C523.687 204.707 523 211.511 526.565 213.771C530.84 216.486 536.559 218.198 541.184 220.33C543.118 221.227 545.215 222.509 547.288 223.045C548.208 223.278 549.292 224.338 548.523 222.952C548.768 223.383 548.733 224.326 548.721 224.793C548.395 234.882 548.488 245.274 548.849 255.363L552.32 254.419C549.991 249.584 547.661 244.75 545.343 239.915C545.075 239.355 544.341 238.971 543.735 238.994C534.707 239.379 525.668 239.775 516.64 240.159C515.044 240.229 512.12 240.858 510.664 239.81C509.86 239.227 508.614 236.478 507.985 235.627C506.389 233.449 504.56 231.457 502.568 229.639C493.132 221.041 481.449 216.416 476.311 203.834C475.915 202.867 475.1 202.284 474.028 202.529C468.017 203.892 461.68 206.001 456.497 209.391C451.686 212.536 449.705 215.542 450.905 221.123C454.039 235.592 461.75 249.072 467.167 262.749L468.472 260.466C437.789 265.266 406.558 265.208 375.898 260.279V263.868C382.398 261.584 390.913 259.138 395.282 253.382C398.217 249.515 399.068 243.818 399.883 239.181C401.06 232.458 401.724 225.655 402.655 218.897C403.354 213.853 403.82 208.226 406.476 203.764C413.454 192.078 427.281 186.929 435.925 176.945C441.784 170.164 443.205 158.584 444.685 150.032C445.092 147.679 441.936 146.782 441.097 149.042C440.433 150.848 423.985 145.104 422.097 144.37C412.138 140.456 411.229 130.809 406.744 122.468C406.045 121.163 405.416 120.545 405.416 120.522C405.521 119.846 406.43 118.937 406.791 118.355L411.94 110.293C414.619 106.087 417.31 101.881 419.989 97.6756L417.065 98.0484C421.62 103.489 422.319 110.573 426.268 116.246C428.796 119.87 432.919 121.955 437.055 123.167C441.772 124.541 446.467 124.739 451.336 124.401C456.916 124.029 463.276 122.747 468.635 124.809C470.615 125.567 471.896 122.398 470.068 121.407C464.534 118.413 461.459 112.681 463.23 106.378C464.022 103.547 466.165 101.112 465.198 98.0018C464.499 95.7184 462.601 94.8096 460.783 93.563C456.101 90.3825 453.468 86.2 454.679 80.2933L451.569 81.1088C457.766 86.6078 466.841 90.3825 474.576 85.4078C477.768 83.3573 479.608 80.0486 481.099 76.67C483.685 70.7983 485.805 64.6818 487.867 58.612L484.209 58.1227C484.71 67.2449 486.935 79.5127 494.682 85.501C502.428 91.4893 512.097 88.0757 515.999 79.9671H512.784C516.116 84.9418 514.264 89.334 510.047 92.7941C508.416 94.1339 506.785 95.3921 506.307 97.5591C505.667 100.448 507.507 103.151 507.868 105.982C508.602 111.703 506.028 116.701 502.37 120.906C501.298 122.141 502.032 123.982 503.686 124.087C516.372 124.821 530.945 121.769 542.407 128.549C552.693 134.631 561.069 143.555 571.448 149.613C573.521 150.824 575.397 147.609 573.323 146.397L573.347 146.409Z" fill="#50329F"/>
<path d="M390.195 114.405C388.704 120.277 383.357 140.036 392.315 143.019C393.666 143.473 395.18 143.077 396.369 142.308C408.251 134.712 414.96 122.106 421.053 109.827C424.256 103.373 428.124 97.7455 430.36 90.8135C432.806 83.2408 433.971 75.0739 432.142 67.2333C427.506 47.3927 408.449 73.6526 403.929 81.004C400.248 87.0039 397.347 93.33 394.773 99.8659C393.853 102.196 391.849 107.87 390.195 114.405Z" fill="#FF4600"/>
<path d="M388.399 113.916C386.418 121.699 381.118 138.58 390.065 143.997C395.866 147.504 402.308 140.584 406 136.751C412.361 130.145 416.927 122.095 421.051 113.974C425.337 105.528 430.614 97.4077 433.072 88.1806C435.146 80.3865 436.415 70.2158 432.548 62.7246C427.131 52.2393 416.111 62.5382 411.3 67.9905C399.826 81.0273 392.779 97.2562 388.399 113.916C387.793 116.235 391.381 117.225 391.987 114.906C395.947 99.8193 402.086 85.0816 411.999 72.907C415.005 69.2255 419.385 63.4353 424.266 62.1537C433.433 59.7538 431.127 79.6525 430.253 84.0214C428.308 93.6796 423.031 101.835 418.651 110.503C414.679 118.355 410.52 126.242 404.591 132.825C402.308 135.353 396.448 142.588 392.348 141.038C389.319 139.896 389.133 135.003 389.121 132.359C389.074 126.452 390.554 120.603 391.998 114.906C392.592 112.588 389.004 111.598 388.41 113.916H388.399Z" fill="#FF4600"/>
<path d="M398.588 84.802C405.31 83.835 409.853 88.3437 412.672 92.9689C412.369 93.2951 412.066 93.6213 411.763 93.9359C408.851 93.9359 405.95 93.9359 403.038 93.9359C404.378 96.0096 405.706 98.0717 407.045 100.145C403.982 100.274 400.93 100.413 397.866 100.542C399.194 102.604 400.522 104.677 401.862 106.74C401.291 105.738 395.408 104.526 393.801 104.34C391.715 104.095 389.514 104.596 387.254 105.435L398.6 84.7787L398.588 84.802Z" fill="#50329F"/>
<path d="M398.589 86.666C404.285 86.1884 408.129 89.3339 411.065 93.9125L411.356 91.6524C410.179 92.9106 404.704 92.0834 403.038 92.0834C401.676 92.0834 400.65 93.6795 401.431 94.8795C402.771 96.9533 404.099 99.0154 405.438 101.089L407.046 98.2931C403.982 98.4212 400.93 98.561 397.866 98.6892C396.527 98.7474 395.467 100.25 396.259 101.485C397.587 103.547 398.915 105.621 400.254 107.683L403.178 105.423C399.124 101.753 391.506 102.056 386.765 103.652L388.862 106.39C392.648 99.5047 396.422 92.6193 400.208 85.734C401.361 83.6369 398.146 81.7496 396.993 83.8583C393.207 90.7436 389.433 97.629 385.647 104.514C384.913 105.866 386.148 107.788 387.744 107.252C390.9 106.192 397.587 105.388 400.546 108.068C402.048 109.431 404.658 107.672 403.47 105.808C402.142 103.745 400.814 101.672 399.474 99.6095L397.866 102.406C400.93 102.277 403.982 102.138 407.046 102.01C408.385 101.951 409.457 100.448 408.653 99.2134C407.314 97.1397 405.986 95.0776 404.646 93.0038L403.038 95.7999C406.626 95.7999 411.356 97.0931 413.988 94.2737C414.536 93.6912 414.734 92.7242 414.28 92.0135C410.645 86.3398 405.613 82.3321 398.589 82.9263C396.224 83.1243 396.201 86.8524 398.589 86.6427V86.666Z" fill="#50329F"/>
<path d="M547.187 170.292C545.696 176.164 540.349 195.923 549.307 198.905C550.658 199.36 552.173 198.964 553.361 198.195C565.243 190.599 571.952 177.993 578.045 165.713C581.248 159.259 585.116 153.632 587.352 146.7C589.799 139.127 590.963 130.961 589.135 123.12C584.498 103.279 565.441 129.539 560.921 136.891C557.24 142.89 554.339 149.217 551.765 155.752C550.845 158.083 548.841 163.756 547.187 170.292Z" fill="#FF4600"/>
<path d="M545.391 169.803C543.411 177.585 538.11 194.467 547.057 199.884C552.858 203.391 559.3 196.47 562.992 192.637C569.353 186.032 573.919 177.981 578.043 169.861C582.166 161.741 587.607 153.294 590.064 144.067C592.138 136.273 593.408 126.102 589.54 118.611C584.123 108.126 573.104 118.425 568.293 123.877C556.819 136.914 549.771 153.143 545.391 169.803C544.785 172.121 548.373 173.111 548.979 170.793C552.939 155.706 559.078 140.968 568.992 128.794C571.997 125.112 576.377 119.322 581.258 118.04C590.426 115.64 588.119 135.539 587.245 139.908C585.3 149.566 580.023 157.721 575.643 166.389C571.671 174.242 567.512 182.129 561.583 188.711C559.3 191.239 553.44 198.474 549.34 196.925C546.311 195.783 546.125 190.89 546.113 188.245C546.067 182.339 547.546 176.49 548.99 170.793C549.585 168.475 545.997 167.484 545.403 169.803H545.391Z" fill="#FF4600"/>
<path d="M588.633 155.927C587.363 154.832 586.035 153.784 584.579 152.782C579.663 149.403 573.442 147.038 567.758 148.855C571.252 151.337 574.747 153.819 578.242 156.288C574.491 157.197 570.74 158.106 566.977 159.026C570.262 161.065 573.547 163.092 576.844 165.131C575.341 164.211 565.51 168.533 563.844 169.547C566.861 171.981 571.986 172.098 575.702 173.729C577.217 174.393 578.719 175.15 580.199 175.977L588.621 155.927H588.633Z" fill="#50329F"/>
<path d="M589.948 154.611C583.483 149.205 575.899 144.941 567.268 147.061C565.59 147.469 565.59 149.59 566.825 150.463C570.32 152.945 573.814 155.426 577.309 157.896L577.752 154.494C574.001 155.403 570.25 156.312 566.487 157.232C564.891 157.617 564.728 159.819 566.045 160.634C569.33 162.673 572.615 164.7 575.911 166.739L577.344 163.337C573.15 162.125 566.487 165.935 562.911 167.939C561.63 168.649 561.781 170.397 562.911 171.154C567.804 174.405 574.071 174.766 579.266 177.585C580.431 178.214 581.526 177.585 582.004 176.479C584.811 169.791 587.618 163.116 590.426 156.428C591.358 154.226 587.758 153.259 586.838 155.438C584.03 162.125 581.223 168.801 578.416 175.488L581.153 174.381C576.016 171.597 569.551 171.108 564.798 167.95V171.166C567.256 169.791 573.453 166.086 576.365 166.937C578.416 167.531 579.569 164.63 577.798 163.535C574.513 161.496 571.228 159.469 567.932 157.43L567.489 160.832C571.24 159.923 574.991 159.015 578.753 158.094C580.431 157.687 580.431 155.566 579.196 154.692C575.701 152.211 572.207 149.729 568.712 147.259L568.269 150.661C575.492 148.891 581.969 152.77 587.327 157.255C589.156 158.782 591.8 156.16 589.96 154.622L589.948 154.611Z" fill="#50329F"/>
<path d="M479.48 132.242C479.352 138.51 479.224 144.778 479.084 151.046C481.518 150.044 483.953 149.03 486.376 148.028C484.396 162.661 482.415 177.282 480.435 191.915C479.736 181.744 479.026 171.585 478.327 161.415C474.657 162.137 470.988 162.848 467.318 163.57C466.06 157.209 462.764 137.613 462.764 137.613C462.764 137.613 479.037 130.984 479.457 132.242H479.48Z" fill="white"/>
<path d="M477.627 132.242C477.499 138.51 477.371 144.778 477.231 151.046C477.208 152.141 478.455 153.306 479.584 152.84C482.019 151.838 484.454 150.824 486.877 149.823L484.593 147.539C482.613 162.172 480.633 176.793 478.653 191.426L482.31 191.915C481.611 181.744 480.901 171.585 480.202 161.415C480.109 160.145 479.084 159.376 477.849 159.62C474.179 160.343 470.51 161.053 466.841 161.776L469.124 163.081C467.446 154.459 466.025 145.791 464.569 137.124L463.264 139.407C465.629 138.452 467.994 137.52 470.382 136.646C472.106 136.005 473.842 135.364 475.589 134.829C476.311 134.607 477.045 134.432 477.756 134.188C478.827 133.827 479.247 134.502 478.14 133.559C479.957 135.096 482.602 132.475 480.773 130.926C478.676 129.155 474.704 131.182 472.583 131.904C469.1 133.104 465.664 134.432 462.263 135.819C461.249 136.227 460.783 137.007 460.958 138.102C462.414 146.758 463.835 155.438 465.513 164.059C465.711 165.096 466.875 165.539 467.796 165.364C471.465 164.642 475.135 163.931 478.804 163.209L476.451 161.415C477.15 171.585 477.86 181.744 478.559 191.915C478.699 193.849 481.914 194.618 482.217 192.404C484.197 177.772 486.178 163.15 488.158 148.518C488.321 147.318 487.354 145.617 485.875 146.234C483.44 147.236 481.006 148.25 478.583 149.252L480.936 151.046C481.064 144.778 481.192 138.51 481.332 132.242C481.378 129.842 477.662 129.842 477.616 132.242H477.627Z" fill="white"/>
<path d="M912.554 103.349C903.502 106.868 889.489 110.06 867.671 111.167C867.671 111.167 870.769 125.858 875.452 131.893C881.952 140.281 887.45 147.469 891.726 157.197C901.068 178.471 903.666 201.888 903.339 224.921C903.176 236.664 902.244 248.396 901.08 260.081C900.346 267.363 898.214 275.635 900.404 282.846C902.501 289.732 909.35 292.877 914.254 297.887H833.702C833.702 297.887 835.147 209.134 835.508 193.511C833.33 198.125 831.326 200.408 828.88 203.729C825.304 208.552 821.506 213.189 817.452 217.628C802.53 233.961 783.903 251.181 759.778 243.957C745.509 239.693 734.722 227.379 728.862 213.69C722.525 198.894 722.688 185.042 722.024 169.815C721.558 159.096 706.298 162.405 698.086 161.508C704.598 158.234 718.763 150.766 725.286 147.527C725.286 147.527 733.464 159.329 740.639 161.321C753.243 164.84 767.537 162.58 778.195 154.914C785.045 149.997 792.081 141.621 793.945 133.163C795.692 125.229 796.158 116.351 794.981 107.159C784.928 110.095 752.859 117.481 720.009 96.2543C723.935 96.0912 727.872 95.9164 731.798 95.7533C727.068 93.0038 721.477 86.7826 717.982 83.9049C723.9 85.0001 729.154 87.0971 734.652 87.4583C731.134 81.9244 727.604 76.4021 724.086 70.8682C738.892 78.0332 771.241 82.3554 805.78 72.6274C819.013 68.8993 831.885 55.8975 834.122 45.0161C834.564 42.8841 834.891 39.9831 834.401 37.8278C833.807 35.2298 831.524 32.8764 830.382 30.4648C827.668 24.7561 826.41 18.3601 826.736 12.0573C826.911 8.77188 827.505 5.52143 828.554 2.39914C827.983 12.1854 833.528 21.4591 840.727 28.1114C849.51 36.2317 861.066 41.3695 873.006 42.1618C878.294 42.5113 884.666 42.3831 889.605 40.2394C894.545 38.0841 899.39 34.6939 903.607 31.3502C900.672 36.523 898.016 40.8919 893.461 44.853C891.236 46.7869 884.2 51.3655 878.679 53.882C874.753 55.6762 866.995 65.5207 867.135 76.3555C867.193 80.5263 870.117 83.7884 873.18 84.8253C884.783 88.7398 893.368 88.2738 905.658 81.6215" fill="#50329F"/>
<path d="M911.901 100.973C897.841 106.309 882.581 107.881 867.67 108.709C866.016 108.802 864.944 110.2 865.294 111.819C866.284 116.433 867.6 121.011 869.336 125.403C872.085 132.382 877.047 137.66 881.264 143.764C892.634 160.215 897.911 180.044 899.891 199.756C901.871 219.468 900.846 240.148 898.621 260.081C897.713 268.167 895.325 277.161 898.598 285.025C901.289 291.491 907.696 294.963 912.518 299.623L914.254 295.417H833.702L836.16 297.875C836.731 263.087 837.173 228.288 837.965 193.5C838.024 191.135 834.482 190.051 833.376 192.253C828.763 201.457 821.482 209.6 814.54 217.115C808.424 223.732 801.959 230.233 794.422 235.231C776.902 246.847 756.109 245.006 741.711 229.336C734.919 221.95 730.341 212.699 727.825 203.041C724.948 192.008 725.693 180.976 724.47 169.78C723.038 156.603 707.521 159.83 698.074 159.003L699.32 163.593C708.418 158.991 717.399 154.168 726.521 149.613L723.154 148.727C726.905 154.075 731.681 159.877 737.68 162.743C746.883 167.147 759.662 165.888 768.946 162.487C778.777 158.887 787.386 151.733 792.686 142.669C798.755 132.289 798.779 118.705 797.439 107.124C797.264 105.586 796.006 104.27 794.329 104.747C769.447 111.912 743.144 107.87 721.255 94.099L720.009 98.6892C723.934 98.5261 727.872 98.3513 731.797 98.1882C734.244 98.0834 735.129 94.9262 733.044 93.598C728.058 90.4408 724.179 85.967 719.729 82.1341L717.33 86.2466C723.131 87.435 728.746 89.3107 734.663 89.8932C736.527 90.0796 737.727 87.668 736.783 86.1884C733.265 80.6545 729.736 75.1322 726.218 69.5983L722.851 72.9653C733.358 77.8817 745.135 79.7691 756.633 80.4681C773.384 81.4817 791.242 79.839 807.271 74.7128C819.234 70.8915 831.011 61.0703 835.461 49.0937C837.709 43.0588 837.616 37.5482 834.261 32.0842C828.833 23.2416 827.936 12.8844 830.941 3.02826L826.107 2.37584C825.757 20.0261 840.307 34.0881 855.625 40.4841C863.721 43.8627 872.702 45.3423 881.451 44.5617C890.77 43.7346 898.155 38.6783 905.366 33.0628L901.498 30.0804C898.54 35.2531 895.383 40.3094 890.583 43.9909C886.506 47.1132 881.859 49.1753 877.455 51.7383C870.815 55.583 866.47 63.9013 865.166 71.2527C863.453 80.9457 868.101 86.3398 877.222 88.5418C887.858 91.1165 897.398 88.6932 906.927 83.7302C909.734 82.2622 907.253 78.0099 904.446 79.4778C895.802 83.9865 887.24 86.1534 877.63 83.5787C870.314 81.6215 868.555 76.8681 870.489 69.9944C871.549 66.2314 873.39 62.6431 875.871 59.6256C880.065 54.5344 887.205 52.4374 892.517 48.6394C898.365 44.4569 902.221 38.7366 905.75 32.5735C907.241 29.9755 903.98 27.96 901.883 29.591C894.824 35.09 887.753 39.5055 878.573 39.82C871.374 40.0647 864.164 38.7366 857.524 35.9638C844 30.325 830.708 18.0455 831.023 2.38749C831.081 -0.431892 826.992 -0.886255 826.188 1.73507C824.255 8.04956 823.742 14.5621 824.86 21.0979C825.431 24.4183 826.433 27.6687 827.843 30.7444C829.52 34.391 832.188 37.1871 832.153 41.4278C832.06 55.3499 816.007 67.1867 804.032 70.5536C779.896 77.3341 748.747 79.7108 725.332 68.7362C723.271 67.7692 720.533 69.8546 721.966 72.1031C725.484 77.6371 729.013 83.1593 732.531 88.6932L734.651 84.9884C729.188 84.4525 723.981 82.6234 718.634 81.5166C716.421 81.0622 714.231 83.9049 716.235 85.6292C720.999 89.7301 725.193 94.4601 730.539 97.862L731.786 93.2718C727.86 93.4349 723.923 93.6097 719.997 93.7728C717.551 93.8776 716.654 97.0349 718.751 98.363C741.699 112.809 769.517 117.027 795.61 109.512L792.5 107.136C793.653 117.178 794.072 129.341 789.308 138.58C784.823 147.283 776.774 154.331 767.618 157.745C759.37 160.832 747.768 162.242 739.567 158.234C734.675 155.834 730.481 150.65 727.383 146.246C726.579 145.104 725.297 144.72 724.016 145.36C714.895 149.916 705.914 154.739 696.816 159.341C694.451 160.541 695.837 163.733 698.062 163.931C703.316 164.397 708.826 163.442 713.998 164.607C722.001 166.413 719.741 176.525 720.102 182.991C720.999 198.894 724.354 214.622 733.999 227.658C741.967 238.435 753.43 246.497 767.012 247.872C780.595 249.247 793.245 242.955 803.625 234.486C810.253 229.068 816.229 222.8 821.843 216.358C827.458 209.915 833.667 202.634 837.628 194.746L833.038 193.5C832.246 228.288 831.803 263.087 831.232 297.875C831.209 299.203 832.374 300.333 833.69 300.333H914.242C916.351 300.333 917.527 297.619 915.978 296.128C909.129 289.51 901.953 286.085 901.883 275.332C901.825 266.676 903.817 257.728 904.527 249.083C906.077 230.361 906.554 211.476 903.968 192.824C901.533 175.267 896.455 157.628 886.53 142.774C882.383 136.564 876.884 131.066 874.065 124.075C872.306 119.718 871.013 115.093 870.023 110.491L867.647 113.602C882.965 112.763 898.738 111.178 913.182 105.691C916.118 104.573 914.848 99.8193 911.878 100.949L911.901 100.973Z" fill="#50329F"/>
<path d="M916.142 70.4372C925.007 74.0022 934.349 79.4895 936.819 88.7166C939.335 98.13 932.66 108.685 923.294 111.353C913.929 114.021 903.258 109.198 898.179 100.891C893.1 92.5728 893.415 81.54 898.051 72.977C902.687 64.4023 911.214 58.2859 920.557 55.5364C939.591 49.9326 956.668 61.1169 979.465 43.3967C978.417 58.9616 977.485 87.2253 976.437 102.79C967.991 83.0778 921.815 78.1497 915.804 78.6623C909.793 79.1866 905.914 82.8797 904.633 88.7748C903.363 94.6699 910.236 101.427 916.247 101.94C920.662 102.313 924.681 100.006 926.603 96.0213C928.769 91.5593 928.024 86.7943 924.797 82.9846C922.689 80.5031 919.998 79.2215 916.922 78.3827C914.523 77.7303 912.193 76.6235 909.851 75.7847C904.936 74.0138 899.95 72.2197 894.859 71.0546C886.857 69.2139 878.772 67.6528 870.746 65.9285C870.735 65.2295 872.377 60.4062 872.365 59.7072C886.891 62.7014 902.291 64.845 916.142 70.4139V70.4372Z" fill="#FF4600"/>
<path d="M915.49 72.8254C923.132 75.9943 932.137 80.7244 934.432 89.3689C936.622 97.6174 930.587 106.646 922.643 108.953C914.256 111.388 904.797 106.879 900.324 99.6329C895.338 91.5359 896.118 80.6545 901.057 72.7322C909.934 58.4722 925.8 55.9325 941.188 56.3635C956.576 56.7946 968.609 54.6043 980.724 45.5287L976.997 43.385C975.692 63.1673 975.273 82.9962 973.968 102.778L978.593 101.532C973.747 91.0699 961.737 85.8039 951.416 82.402C941.095 79.0001 929.725 76.6701 918.752 76.204C907.779 75.738 897.062 86.8175 904.61 97.4426C908.361 102.72 915.292 105.994 921.641 103.687C927.99 101.38 931.473 94.2388 929.958 87.7961C927.733 78.3011 918.449 76.3788 910.54 73.4196C897.854 68.6896 884.633 66.3712 871.434 63.5634L873.17 66.6158C873.52 64.4955 874.44 62.5149 874.789 60.3945L871.737 62.1304C886.485 65.1246 901.43 67.3498 915.514 72.8371C918.484 74.0021 919.777 69.2022 916.83 68.0488C902.747 62.5615 887.801 60.3246 873.054 57.3421C871.854 57.0975 870.235 57.68 870.002 59.078C869.652 61.1984 868.732 63.179 868.382 65.2993C868.173 66.5576 868.697 68.0488 870.118 68.3517C879.95 70.4488 890.026 72.0332 899.648 74.9458C904.086 76.2972 908.385 77.9866 912.741 79.5827C917.657 81.3885 923.26 82.4719 925.008 88.2971C926.778 94.2038 921.839 100.646 915.549 99.3533C910.54 98.3164 905.95 93.0737 907.476 87.9126C909.188 82.0991 914.547 80.9224 919.742 81.237C929.155 81.8195 938.648 83.7069 947.665 86.433C957.555 89.4272 969.681 94.0174 974.329 104.06C975.447 106.472 978.802 105.027 978.954 102.813C980.258 83.0311 980.678 63.2023 981.982 43.42C982.099 41.6608 979.734 40.1695 978.255 41.2763C970.753 46.9034 962.587 50.5849 953.175 51.3539C946.022 51.9364 938.847 51.051 931.694 51.3655C917.436 51.9946 902.91 58.7169 895.944 71.742C889.141 84.4641 891.226 101.602 903.644 110.048C915.083 117.842 930.844 115.128 937.425 102.487C946.034 85.9437 930.576 73.7458 916.842 68.0605C913.895 66.8372 912.613 71.6371 915.525 72.8487L915.49 72.8254Z" fill="#FF4600"/>
<path d="M920.009 95.9398C915.548 97.5825 910.562 99.8892 904.773 102.86C906.543 98.5961 909.281 94.5883 912.263 91.0816C911.576 91.8855 901.127 93.6447 897.818 94.0874C900.393 91.8039 906.007 86.235 909.654 84.4642C909.654 84.4642 899.81 83.1594 898.016 82.9147C899.1 81.9361 902.618 76.6235 916.293 73.4546L920.021 95.9398H920.009Z" fill="#50329F"/>
<path d="M919.358 93.5747C913.93 95.6368 908.699 98.1067 903.527 100.751L906.894 104.118C908.757 99.9824 911.111 96.3475 913.999 92.8407C915.654 90.8252 913.545 87.3534 911.017 88.9728C907.604 91.1631 901.127 91.1631 897.155 91.734L899.555 95.8465C903.154 92.5961 906.602 88.9612 910.889 86.6078C913.254 85.303 911.856 82.3088 909.643 82.0176C905.985 81.5283 902.316 81.0622 898.658 80.5496L899.741 84.6622C904.657 79.8506 910.237 77.5089 916.935 75.8429L913.906 74.1186C915.153 81.6098 916.387 89.1126 917.634 96.6038C918.146 99.7261 922.899 98.3979 922.375 95.299C921.129 87.8078 919.894 80.305 918.647 72.8138C918.426 71.474 916.807 70.7983 915.619 71.0895C908.105 72.9652 901.78 75.7613 896.258 81.1787C895.058 82.3554 895.454 85.035 897.341 85.2913C901.43 85.8622 905.531 86.3864 909.631 86.934L908.385 82.3438C903.737 84.9068 899.963 88.833 896.048 92.3514C894.022 94.1805 896.258 96.7785 898.448 96.464C902.886 95.8349 909.596 95.7067 913.487 93.2135L910.505 89.3456C907.371 93.1553 904.669 97.1048 902.63 101.625C901.628 103.85 903.69 106.169 905.997 104.992C910.784 102.557 915.619 100.227 920.651 98.3164C923.586 97.198 922.305 92.4446 919.346 93.5747H919.358Z" fill="#50329F"/>
<path d="M874.8 47.719C871.224 53.9869 863.069 57.2373 856.162 55.1402C850.372 53.381 843.208 45.9015 845.305 39.5055C855.113 43.7346 863.675 47.9403 874.8 47.719Z" fill="white" stroke="white" stroke-width="0.35" stroke-miterlimit="10"/>
<path d="M229.56 276.066C231.155 267.759 231.563 260.035 235.116 252.287C235.966 250.447 236.875 248.629 237.877 246.847C242.245 239.053 247.837 231.957 254.395 225.899C258.391 222.218 268.91 214.074 275.083 211.977C249.701 210.544 223.98 223.266 209.722 244.318C206.215 238.004 199.738 233.425 192.621 232.214C185.503 231.002 177.885 233.204 172.492 238.004C177.233 221.076 189.324 206.338 205.004 198.393C192.271 199.628 180.087 205.756 171.513 215.251C164.64 222.859 160.132 232.575 158.664 242.711C158.385 244.656 158.408 264.31 157.5 264.252C145.222 263.507 132.524 268.015 123.31 276.066C113.979 284.221 107.596 295.673 105.557 307.906C74.7691 307.743 46.1944 297.363 15.7791 294.357C19.6698 297.199 31.0857 305.25 34.9765 308.092C26.5543 306.392 17.7012 306.962 9.55859 309.7C12.3893 308.745 28.8375 322.492 30.3985 325.382C24.1197 325.58 17.8526 325.778 11.5739 325.976C22.3724 329.389 55.0825 347.517 64.3666 350.919C84.2862 358.236 106.978 358.305 126.677 350.197C125.197 350.803 128.995 365.936 129.274 367.556C130.684 375.466 126.455 381.059 122.902 388.095C114.294 405.14 105.697 422.184 97.0884 439.229C93.4306 446.487 89.7146 453.885 88.4449 461.912C86.4879 474.32 90.5417 486.855 95.4109 498.436C100.269 510.016 106.058 521.445 107.817 533.888C109.576 546.319 86.7675 563.969 85.8355 570.47C103.006 565.367 131.895 553.821 144.756 547.262C144.756 547.262 139.351 478.91 141.808 470.976C143.288 466.188 146.06 461.912 148.798 457.706C158.059 443.469 167.32 429.233 176.58 414.984C175.555 416.534 182.032 430.747 182.591 433.578C183.919 440.335 186.948 446.487 189.639 452.86C185.736 454.083 181.834 455.306 177.92 456.529C174.449 471.733 170.977 486.937 167.506 502.141C176.441 490.781 178.619 484.141 186.703 474.366C200.938 476.254 217.002 477.652 228.092 468.529C238.448 460.001 240.754 444.763 238.378 431.551C236.001 418.34 229.851 406.142 226.042 393.28C223.805 385.73 222.419 377.47 225.226 370.119C228.604 361.276 237.19 355.707 245.262 350.756" fill="#50329F"/>
<path d="M232.53 276.881C233.94 269.145 234.604 261.13 237.784 253.848C240.638 247.313 244.738 241.126 249.316 235.686C256.213 227.507 265.753 218.793 275.911 214.948C279.091 213.748 278.707 209.065 275.095 208.901C248.221 207.725 222.419 220.738 207.078 242.769H212.389C203.233 227.624 183.873 224.688 170.325 235.837L175.462 238.831C180.308 222.427 191.433 209.006 206.565 201.061C209.139 199.709 208.091 194.979 205.016 195.329C189.115 197.158 174.624 205.057 165.258 218.198C157.477 229.115 155.624 240.73 155.275 253.65C155.217 256.015 155.193 258.392 154.995 260.757C154.926 261.561 154.867 262.342 154.739 263.134C156.23 261.514 156.23 260.839 154.739 261.13C153.819 261.13 152.887 261.153 151.967 261.211C144.01 261.701 136.171 264.101 129.275 268.085C115.04 276.287 105.558 291.13 102.61 307.114L105.581 304.854C75.1189 304.458 45.9618 294.462 15.8028 291.304C12.4363 290.955 12.0752 295.463 14.2535 297.036C20.6138 301.661 27.0906 306.147 33.4509 310.772L35.8156 305.145C26.6246 303.502 17.6899 303.968 8.76687 306.753C5.63332 307.731 5.99443 313.277 9.58229 312.799C12.2732 312.438 17.3987 317.564 19.2975 319.09C22.0815 321.339 25.8092 323.879 27.7662 326.954L30.4222 322.329C24.1434 322.527 17.8763 322.725 11.5975 322.923C8.07958 323.028 7.48549 327.875 10.7821 328.97C27.242 334.411 42.2924 344.313 58.0067 351.537C79.7086 361.521 105.359 361.987 127.516 353.191L124.522 348.053C122.029 350.628 123.683 355.731 124.254 358.771C125.454 365.109 127.597 370.596 125.116 376.993C121.516 386.231 115.972 395.097 111.498 403.951C106.513 413.843 101.515 423.722 96.5296 433.613C92.4059 441.78 87.758 450.087 85.8709 459.127C83.9838 468.168 85.0555 476.859 87.4668 485.399C90.2392 495.209 94.8172 504.354 98.673 513.756C101.539 520.734 106.629 531.127 104.23 538.769C102.051 545.689 96.3432 551.526 91.7303 556.909C88.6084 560.555 83.9721 564.784 82.9004 569.666C82.4112 571.879 84.3332 574.163 86.6863 573.452C107.002 567.324 127.388 559.495 146.352 549.942C147.249 549.487 147.959 548.287 147.878 547.286C146.515 529.973 145.338 512.614 144.64 495.255C144.348 487.857 143.16 479.271 144.779 471.954C145.793 467.411 149.008 463.124 151.501 459.279C154.436 454.735 157.395 450.215 160.342 445.683C166.656 435.978 172.97 426.262 179.283 416.557L173.657 414.192C172.224 418.689 176.499 425.714 178.049 429.769C181.182 437.982 183.535 446.312 187.018 454.444L188.859 449.924C185.399 451.007 178.34 451.753 175.789 454.386C173.238 457.019 173.063 464.207 172.271 467.69C169.708 478.91 167.145 490.141 164.582 501.36C163.965 504.063 167.704 506.975 169.72 504.354C174.962 497.562 179.213 490.245 184.013 483.162C184.933 481.799 186.401 478.782 187.694 478.094C189.36 477.209 192.155 478.152 193.984 478.339C198.248 478.758 202.535 479.015 206.821 478.805C222.326 478.059 235.559 470.417 240.347 455.061C245.729 437.807 239.124 420.658 233.171 404.546C229.758 395.307 225.261 384.74 227.172 374.721C229.129 364.422 238.623 358.538 246.859 353.459C250.225 351.385 247.138 346.061 243.748 348.146C236.817 352.422 229.595 357.024 225.029 363.967C220.462 370.911 219.996 378.67 221.301 386.418C224.504 405.606 236.782 422.65 236.177 442.596C235.897 451.729 232.822 461.376 225.18 466.991C217.538 472.607 208.312 473.038 199.506 472.607C195.825 472.42 190.315 470.696 186.75 471.325C183.861 471.838 182.3 475.03 180.658 477.279C175.264 484.665 170.978 492.75 165.375 500.008L170.512 503.003C173.983 487.799 177.454 472.595 180.926 457.392L178.782 459.535C182.685 458.312 186.587 457.089 190.501 455.865C192.575 455.213 193.134 453.197 192.342 451.345C189.208 444.005 187.146 436.572 184.386 429.163C183.267 426.157 178.887 418.095 179.598 415.835C180.693 412.398 175.824 410.627 173.971 413.47C167.658 423.175 161.344 432.891 155.03 442.596C149.684 450.821 142.915 459.127 139.502 468.424C136.777 475.869 138.116 485.282 138.396 492.995C139.048 511.111 140.294 529.228 141.716 547.297L143.242 544.641C124.743 553.961 104.87 561.557 85.0555 567.534L88.8413 571.32C89.7849 567.021 94.6541 562.967 97.3916 559.763C101.329 555.15 105.453 550.396 108.237 544.967C115.075 531.697 106.385 516.051 101.003 503.667C96.8558 494.125 92.6039 484.374 91.3924 473.947C90.1111 462.937 93.5824 453.267 98.4051 443.539C107.759 424.677 117.055 405.699 126.945 387.105C130.614 380.196 133.585 373.952 132.105 365.971C131.663 363.595 131.022 361.253 130.544 358.876C130.241 357.373 129.915 355.87 129.706 354.356C129.636 353.867 129.659 353.214 129.496 352.76C129.03 351.35 130.241 351.001 128.879 352.41C130.859 350.372 128.89 346.073 125.885 347.273C103.437 356.185 78.8233 354.845 57.1913 344.372C42.4671 337.242 27.9992 328.201 12.413 323.04L11.5975 329.086C17.8763 328.888 24.1434 328.69 30.4222 328.492C32.6587 328.422 34.3711 325.906 33.0781 323.867C30.3639 319.591 25.5995 316.224 21.6505 313.184C18.7383 310.923 13.6943 306.112 9.58229 306.659L10.3977 312.706C18.2258 310.259 26.0888 309.654 34.1731 311.098C37.6678 311.716 39.4035 307.557 36.5378 305.471C30.1775 300.846 23.7007 296.361 17.3405 291.735L15.7911 297.467C45.9618 300.625 75.0607 310.621 105.569 311.017C106.816 311.028 108.295 310.061 108.54 308.757C111.545 292.493 121.586 277.813 137.01 271.091C141.168 269.273 145.618 268.027 150.138 267.538C152.689 267.258 156.824 268.272 159.073 266.943C161.321 265.615 161.076 262.074 161.204 259.837C161.81 249.2 161.111 239.635 165.736 229.627C172.958 214.028 188.008 203.472 205.016 201.515L203.466 195.783C186.96 204.439 174.81 219.375 169.533 237.223C168.601 240.392 172.457 242.047 174.67 240.218C185.166 231.573 200.112 234.381 207.078 245.903C208.336 247.988 211.085 247.779 212.389 245.903C226.508 225.631 250.481 214.016 275.095 215.088L274.28 209.041C263.097 213.27 252.601 222.311 244.971 231.352C240.009 237.235 235.641 243.736 232.472 250.761C228.954 258.567 228.127 266.943 226.601 275.273C225.891 279.141 231.82 280.807 232.53 276.904V276.881Z" fill="#50329F"/>
<path d="M372.921 400.689C371.081 397.229 366.759 396.087 362.915 395.307C313.326 385.136 263.736 374.965 214.147 364.806C202.02 362.313 188.95 360.391 178.723 366.367C154.26 350.372 56.6888 286.563 56.3975 286.376C55.4423 285.794 57.5857 277.231 57.2013 275.786C56.0597 271.429 51.4468 269.227 47.4162 268.178C34.9752 264.951 22.3245 269.355 10.3728 266.361C7.9731 265.755 5.56178 265.161 3.16211 264.555C6.02774 265.277 11.5144 275.087 12.5395 277.382C15.475 283.918 17.5834 290.978 20.6121 297.607C21.5907 299.739 22.5808 301.894 24.1418 303.654C28.3004 308.337 33.193 305.238 38.435 304.539C40.8113 304.225 42.8615 302.733 45.1564 302.034C47.8473 301.219 49.4082 302.291 51.4934 303.735C63.8645 312.287 76.7365 320.197 89.329 328.434C107.536 340.923 125.837 353.296 144.114 365.703C148.762 368.861 157.731 377.389 166.515 382.095C164.488 390.542 169.217 397.952 174.482 406.748C202.148 452.929 236.536 493.088 265.6 537.849C267.359 540.552 269.176 543.325 271.832 545.154C274.022 546.657 276.934 547.379 279.416 546.61C279.94 546.447 280.441 546.214 280.918 545.911C285.03 543.255 284.588 537.208 283.656 532.396C278.996 508.42 269.269 446.184 273.067 439.613C278.309 430.514 338.592 419.202 357.743 415.8C361.878 415.066 366.177 414.262 369.531 411.734C372.886 409.206 374.913 404.394 372.945 400.689H372.921Z" fill="#FF4600"/>
<path d="M375.6 399.117C372.035 393.804 366.269 392.825 360.352 391.614C350.963 389.691 341.562 387.757 332.173 385.835C313.768 382.06 295.351 378.286 276.946 374.511C258.54 370.736 240.123 366.962 221.718 363.187C207.029 360.169 191.14 356.15 177.138 363.676H180.271C156.321 348.006 132.36 332.348 108.409 316.679C96.4227 308.838 84.4244 300.997 72.4376 293.157C68.7333 290.733 65.0173 288.31 61.313 285.875C60.5558 285.386 59.5656 284.431 58.7036 284.163C58.4823 284.093 58.2842 283.871 58.0862 283.767C57.6203 283.499 58.4706 283.592 58.6104 284.582C58.9599 287.192 59.4142 283.347 59.4608 282.939C59.8685 279.409 61.045 276.182 59.3676 272.827C57.2591 268.598 52.5996 266.338 48.2313 265.173C41.172 263.297 33.8332 263.856 26.6342 264.171C18.7013 264.52 11.6537 263.472 3.97711 261.549C0.727065 260.734 -1.75415 265.778 1.58908 267.211C6.1438 269.169 9.47538 277.836 11.2227 282.159C14.2281 289.592 16.2783 299.797 21.9397 305.821C26.7041 310.889 33.309 309.048 39.25 307.51C41.2536 306.986 44.0027 305.203 45.9714 305.005C48.3361 304.772 49.9902 306.461 51.7725 307.673C56.4554 310.842 61.1615 313.953 65.9026 317.028C83.7371 328.562 101.327 340.399 118.893 352.329C127.304 358.037 136.087 363.443 144.195 369.583C151.056 374.791 157.37 380.511 164.93 384.752L163.509 381.245C161.959 389.575 164.942 396.565 169.065 403.695C174.424 412.969 180.202 422.009 186.131 430.922C197.523 448.048 209.685 464.638 221.846 481.217C234.008 497.795 246.6 514.886 258.214 532.268C262.431 538.571 266.531 547.833 274.674 549.674C280.999 551.095 286.172 546.959 287.15 540.761C288.024 535.286 286.195 529.449 285.228 524.078C284.133 517.997 283.108 511.904 282.129 505.799C279.904 491.888 277.854 477.943 276.421 463.927C275.886 458.708 275.396 453.465 275.291 448.211C275.245 445.928 274.93 442.188 276.049 440.743C278.122 438.052 283.352 436.689 286.346 435.594C291.973 433.555 297.751 431.936 303.528 430.409C317.961 426.623 332.616 423.606 347.282 420.833C357.754 418.852 382.31 416.452 375.88 399.839C374.458 396.157 368.459 397.753 369.904 401.482C374.319 412.864 346.594 414.635 339.139 416.091C327.106 418.456 315.096 421.008 303.214 424.072C293.976 426.46 283.958 428.802 275.571 433.543C270.049 436.654 269.071 440.464 269.059 446.533C269.001 469.03 273.556 492.063 277.237 514.175C278.11 519.43 279.019 524.672 279.998 529.903C280.475 532.455 281.128 535.053 281.128 537.662C281.128 541.099 279.765 544.408 275.513 543.523C272.531 542.905 270.317 539.34 268.768 537.068C258.156 521.585 247.672 506.078 236.594 490.921C224.06 473.76 211.327 456.751 199.247 439.264C193.376 430.771 187.645 422.161 182.17 413.4C176.695 404.639 167.469 393.594 169.461 382.888C169.706 381.536 169.298 380.092 168.04 379.381C160.585 375.198 154.364 369.525 147.573 364.41C139.663 358.445 131.148 353.168 122.947 347.599C105.369 335.669 87.8025 323.797 69.9564 312.275C65.5299 309.421 61.1149 306.531 56.7466 303.584C53.8577 301.627 50.6775 298.691 46.9499 298.632C43.2222 298.574 39.5761 300.997 35.9999 301.79C34.5904 302.104 32.913 302.745 31.4685 302.85C27.3215 303.153 25.7372 301.021 23.9899 297.607C20.0409 289.906 18.1888 281.262 14.0767 273.642C12.0032 269.798 8.96283 263.681 4.67604 261.852L2.28802 267.514C7.62321 268.854 12.8536 270.264 18.3751 270.497C25.2713 270.788 32.1441 269.681 39.0403 270.066C43.4086 270.299 53.45 271.161 54.044 276.998C54.3586 280.143 52.0404 283.72 53.1587 286.866C53.846 288.788 55.7681 289.685 57.3873 290.733C60.6257 292.854 63.8757 294.974 67.1141 297.095C92.3573 313.603 117.612 330.112 142.855 346.62C154.271 354.088 165.675 361.544 177.091 369.012C178.035 369.63 179.27 369.525 180.225 369.012C194.367 361.416 212.154 367.532 226.785 370.538C242.942 373.847 259.099 377.167 275.245 380.476C291.39 383.785 307.559 387.105 323.704 390.414C331.975 392.103 340.234 393.804 348.505 395.493C352.267 396.262 356.018 397.031 359.781 397.8C363.334 398.534 367.982 398.93 370.195 402.227C372.408 405.524 377.778 402.425 375.553 399.093L375.6 399.117Z" fill="#FF4600"/>
<path d="M245.294 350.779C254.45 356.418 266.111 361.323 273.694 368.861C281.371 376.503 287.184 386.488 287.859 397.299C288.43 406.468 285.262 415.555 280.532 423.431C275.803 431.306 269.547 438.134 263.327 444.902C268.348 444.203 273.368 443.493 278.389 442.794C275.209 447.64 272.017 452.487 268.837 457.333C275.873 455.621 282.909 453.908 289.956 452.184C286.974 457.24 284.668 462.401 282.035 467.644C282.979 465.757 289.094 463.31 290.981 462.005C294.406 459.628 297.703 457.077 300.86 454.374C306.94 449.155 312.497 443.341 317.436 437.038C326.441 425.54 326.86 411.116 326.243 396.845C325.031 368.534 314.104 340.958 296.398 318.939C286.962 307.207 275.593 297.025 262.791 289.102C260.298 287.565 230.023 273.712 229.568 276.077" fill="#50329F"/>
<path d="M243.745 353.436C259.506 362.931 277.096 370.259 283.212 389.33C289.945 410.313 274.301 428.382 261.149 442.724C258.912 445.159 261.196 448.281 264.143 447.862C269.163 447.163 274.184 446.452 279.205 445.753L275.733 441.233C272.553 446.079 269.361 450.926 266.181 455.772C264.644 458.114 267.171 460.898 269.653 460.292C276.689 458.58 283.724 456.867 290.772 455.143L287.301 450.623C284.423 455.656 281.954 460.887 279.379 466.083C277.574 469.706 282.327 472.281 284.691 469.193C286.637 466.642 291.576 465.337 294.232 463.461C298.903 460.153 303.341 456.46 307.5 452.522C314.419 445.974 321.572 438.495 325.299 429.594C332.999 411.256 329.994 387.466 325.043 368.767C315.736 333.677 291.087 298.574 257.48 283.102C251.189 280.202 244.817 277.382 238.329 274.959C235.463 273.887 229.091 270.706 226.913 274.516C224.944 277.965 230.256 281.064 232.225 277.627C231.106 279.596 230.07 277.93 231.409 279.141C231.922 279.596 233.32 279.712 233.984 279.934C236.465 280.761 238.888 281.739 241.311 282.73C246.308 284.768 251.247 286.959 256.128 289.242C269.373 295.44 280.847 305.681 290.434 316.609C303.516 331.51 313.243 349.428 318.59 368.511C323.412 385.742 326.709 408.076 320.384 425.353C316.563 435.792 307.663 444.378 299.439 451.555C295.583 454.91 291.564 458.242 287.068 460.689C284.202 462.25 281.395 463.473 279.379 466.106L284.691 469.217C287.266 464.032 289.735 458.79 292.613 453.757C293.976 451.38 291.739 448.607 289.141 449.236C282.105 450.949 275.069 452.662 268.022 454.386L271.493 458.906C274.673 454.06 277.865 449.213 281.045 444.366C282.688 441.862 279.974 439.508 277.574 439.846C272.553 440.545 267.533 441.256 262.512 441.955L265.506 447.093C279.822 431.481 295.769 412.188 289.654 389.435C287.196 380.29 281.534 371.82 274.58 365.47C266.484 358.096 256.152 353.738 246.856 348.135C243.454 346.084 240.356 351.408 243.745 353.447V353.436Z" fill="#50329F"/>
<path d="M197.089 256.283C200.409 256.307 203.74 255.946 206.967 255.177C203.95 255.899 199.407 258.986 198.405 262.015C197.263 265.476 197.345 271.336 200.106 274.143C197.159 271.138 192.348 270.497 188.34 271.802C184.333 273.106 181.048 276.054 178.462 279.374C178.753 273.27 174.455 267.235 168.595 265.499C171.578 264.742 174.117 262.435 175.154 259.534C176.843 254.85 174.14 251.996 172.195 248.175C179.359 253.406 188.224 256.225 197.089 256.283Z" fill="white"/>
<path d="M197.091 259.382C200.737 259.324 204.231 258.916 207.796 258.159L206.153 252.182C195.693 255.48 190.765 267.27 197.929 276.334L202.309 271.953C193.526 264.439 182.821 269.25 176.274 277.184L181.563 279.374C181.4 271.417 176.821 265.243 169.413 262.516V268.493C173.385 267.107 176.763 264.497 178.138 260.361C179.862 255.188 177.276 251.029 174.864 246.614L170.624 250.854C178.522 256.342 187.492 259.103 197.079 259.382C201.074 259.499 201.063 253.301 197.079 253.184C188.517 252.94 180.794 250.388 173.758 245.507C171.079 243.643 168.131 247.196 169.518 249.748C171.987 254.268 174.538 260.163 167.77 262.516C164.788 263.553 164.87 267.433 167.77 268.493C172.511 270.241 175.261 274.388 175.365 279.374C175.412 281.844 178.86 283.743 180.654 281.565C184.696 276.66 191.825 271.114 197.918 276.334C201.005 278.978 204.756 275.052 202.298 271.953C198.046 266.571 202.193 259.93 207.784 258.171C211.605 256.971 210.033 251.367 206.142 252.194C203.125 252.835 200.166 253.138 197.079 253.196C193.095 253.266 193.083 259.464 197.079 259.394L197.091 259.382Z" fill="white"/>
<path d="M523.263 493.908C526.291 499.407 529.005 504.522 530.485 507.644C539.583 526.844 548.68 544.133 560.457 561.97C575.1 555.131 589.743 548.292 604.397 541.453C603.78 541.768 617.386 559.045 618.399 560.944C622.756 569.088 624.689 578.373 624.689 587.554C624.142 627.538 593.762 665.996 572.2 697.685C555.064 722.884 537.928 748.072 520.793 773.272C545.43 773.062 576.381 772.864 601.019 772.654C585.584 772.783 590.908 745.602 596.942 738.997C610.385 724.247 625.214 710.768 641.138 698.745C659.508 684.869 679.346 672.939 700.221 663.211C710.903 658.236 721.841 653.844 733.001 650.058C736.379 648.916 748.168 646.027 748.168 646.027C748.168 646.027 749.496 683.028 743.671 705.816C770.207 705.397 795.625 706.178 821.614 705.117C812.027 701.715 804.106 693.921 800.564 684.391C795.404 670.539 802.242 657.701 804.304 644.14C806.098 632.314 806.971 617.577 802.51 606.229C797.314 593.029 785.13 584.187 774.331 574.983C763.533 565.779 752.92 553.966 752.979 539.776C766.631 547.15 783.848 550.18 798.689 555.201C813.075 534.067 828.697 514.04 838.703 491.392L815.079 466.285C809.371 477.388 800.227 485.59 790.43 495.761C788.764 497.485 786.959 499.291 784.617 499.78C780.598 500.619 776.999 497.334 774.203 494.316C769.543 489.295 764.954 484.215 760.224 479.264C757.545 476.456 751.825 473.415 752.291 469.547C752.699 466.169 760.248 459.353 762.24 456.173C765.187 451.466 767.715 446.503 769.835 441.377C774.04 431.16 776.556 420.255 777.337 409.234C777.733 403.688 777.686 398.119 777.208 392.585C777.045 390.651 773.9 377.906 774.727 377.055C765.886 386.119 757.044 395.172 748.203 404.236C745.756 393.867 743.298 383.498 740.852 373.129C737.264 378.36 733.688 383.591 730.1 388.822C728.073 375.378 726.046 361.945 724.02 348.5C715.935 361.083 707.851 373.677 699.767 386.259C694.21 372.162 690.68 357.541 685.101 343.712C679.719 354.069 674.325 364.438 668.944 374.795C659.555 360.046 653.951 346.042 647.218 327.576C642.233 347.3 637.247 367.024 632.261 386.76C624.014 375.121 615.755 363.494 607.507 351.856C601.706 371.65 595.893 391.444 590.092 411.238C575.694 403.047 561.296 394.845 546.898 386.655C548.506 410.445 557.965 433.466 572.887 451.99C583.569 465.249 595.812 475.384 608.975 486.207C607.635 485.101 589.836 500.922 588.007 502.192C584.477 504.662 580.761 507.213 576.498 507.807C567.004 509.147 558.104 497.636 553.596 490.425C552.128 488.06 550.87 485.602 549.752 483.074L523.239 493.908H523.263Z" fill="#50329F"/>
<path d="M520.047 495.784C532.523 518.537 542.96 542.071 557.242 563.845C558.418 565.639 560.422 566.071 562.332 565.185C576.975 558.346 591.618 551.508 606.272 544.669L600.808 540.463C600.261 543.947 603.581 547.104 605.491 549.69C608.404 553.628 611.607 557.426 614.31 561.504C624.001 576.113 621.695 596.233 616.977 612.136C606.237 648.345 580.271 679.219 559.35 709.976C545.43 730.445 531.509 750.915 517.577 771.396C515.97 773.761 518.113 777.012 520.792 777C547.538 776.779 574.272 776.604 601.018 776.383C605.818 776.348 605.794 769.113 601.018 768.938C589.859 768.542 595.264 747.466 599.271 741.979C605.06 734.068 613.506 727.067 620.728 720.484C629.162 712.807 637.992 705.572 647.206 698.85C677.714 676.574 712.37 658.667 749.146 649.627L744.439 646.039C745.115 665.483 744.742 685.894 740.071 704.838C739.5 707.145 741.189 709.579 743.659 709.545C769.636 709.172 795.625 709.847 821.602 708.845C825.958 708.671 826.436 703.009 822.592 701.541C814.997 698.628 808.671 692.978 805.107 685.638C800.96 677.087 802.486 668.034 804.676 659.192C808.45 643.988 811.362 628.027 808.159 612.416C805.153 597.748 794.856 587.426 783.801 578.105C771.884 568.063 757.172 556.808 756.682 539.776L751.079 542.991C765.745 550.645 782.089 553.628 797.675 558.789C799.317 559.337 800.971 558.405 801.88 557.076C816.045 536.339 831.526 516.289 841.894 493.268C842.605 491.695 842.535 490.064 841.312 488.759C833.437 480.394 825.562 472.029 817.688 463.652C816.08 461.951 812.958 462.336 811.84 464.41C807.786 471.959 802.264 478.262 796.335 484.378C793.528 487.279 790.814 490.495 787.773 493.128C784.733 495.761 782.566 496.716 779.398 494.235C777.86 493.035 776.59 491.438 775.262 490.017C771.884 486.394 768.576 482.724 765.186 479.124C762.949 476.736 758.919 474.347 757.137 471.633C755.203 468.685 758.197 466.658 760.235 464.34C761.924 462.406 763.718 460.53 765.186 458.421C774.354 445.152 779.176 428.212 780.772 412.333C781.494 405.179 781.786 397.63 780.609 390.512C780.097 387.413 777.417 380.294 778.303 378.057C779.712 374.492 774.528 371.941 772.082 374.434C763.241 383.498 754.399 392.55 745.558 401.614L751.778 403.257C749.332 392.888 746.874 382.519 744.428 372.151C743.647 368.83 739.337 368.772 737.625 371.265C734.037 376.496 730.461 381.727 726.873 386.958L733.676 387.844C731.649 374.399 729.622 360.966 727.595 347.522C727.083 344.132 722.353 344.213 720.792 346.636C712.708 359.219 704.623 371.813 696.539 384.395L703.342 385.281C697.925 371.277 694.198 356.702 688.676 342.733C687.593 340.007 683.492 338.737 681.873 341.848C676.491 352.205 671.098 362.574 665.716 372.931H672.146C663.014 358.403 656.677 342.675 650.794 326.609C649.606 323.347 644.585 322.811 643.618 326.609C638.632 346.333 633.647 366.057 628.661 385.793L635.464 384.908C627.217 373.269 618.957 361.642 610.71 350.003C608.904 347.452 604.862 347.65 603.907 350.889C598.106 370.683 592.293 390.477 586.492 410.27L591.955 408.045C577.557 399.855 563.159 391.653 548.761 383.463C546.466 382.158 542.937 383.778 543.158 386.679C544.707 406.985 551.242 426.616 562.321 443.73C573.399 460.845 590.022 475.443 606.342 488.852L609.965 482.631C606.505 481.571 602.567 485.52 600.145 487.396C595.893 490.704 591.804 494.223 587.68 497.683C582.671 501.9 575.857 506.514 568.786 502.017C561.715 497.52 556.473 488.817 552.967 481.198C552.349 479.858 550.159 478.914 548.761 479.485C539.92 483.097 531.078 486.708 522.248 490.32C517.88 492.103 519.79 499.302 524.229 497.497C533.07 493.885 541.912 490.273 550.742 486.662L546.536 484.949C552.757 498.475 566.479 517.815 583.58 509.345C588.67 506.817 592.852 503.007 597.162 499.384C599.748 497.205 602.335 495.027 605.014 492.965C605.992 492.207 607.25 491.543 608.124 490.681C609.51 489.306 610.221 490.483 607.984 489.796C611.374 490.833 614.531 485.986 611.607 483.574C596.324 471.015 580.924 458.142 569.811 441.563C558.698 424.985 552.104 406.321 550.602 386.655L544.999 389.871C559.397 398.061 573.795 406.263 588.193 414.453C590.301 415.653 592.98 414.546 593.656 412.228C599.457 392.434 605.27 372.64 611.071 352.846L604.268 353.731C612.516 365.37 620.775 376.997 629.022 388.636C630.781 391.106 634.986 391.071 635.825 387.75C640.811 368.026 645.797 348.302 650.782 328.567H643.607C649.699 345.215 656.234 361.607 665.704 376.671C667.126 378.919 670.795 379.246 672.135 376.671C677.516 366.314 682.91 355.945 688.292 345.588L681.489 344.702C687.01 358.671 690.738 373.246 696.155 387.249C697.296 390.22 701.129 390.989 702.958 388.135C711.042 375.552 719.126 362.958 727.211 350.376L720.408 349.491C722.435 362.935 724.461 376.368 726.488 389.812C727.013 393.273 731.684 393.04 733.291 390.698C736.879 385.467 740.455 380.236 744.043 375.005L737.24 374.119C739.687 384.488 742.144 394.857 744.591 405.226C745.231 407.952 748.901 408.826 750.811 406.869C759.653 397.805 768.494 388.752 777.336 379.688L771.115 376.065C769.415 380.364 772.583 387.354 773.27 391.665C774.761 401.032 773.888 411.296 772.117 420.558C770.102 431.136 766.456 441.342 761.132 450.72C757.859 456.487 751.196 461.054 749.052 467.346C746.548 474.697 754.853 479.112 759.129 483.551C762.821 487.384 766.351 491.38 769.985 495.283C772.886 498.394 776.008 501.959 780.26 503.182C788.798 505.663 795.077 496.308 800.203 491.066C807.041 484.064 813.599 476.852 818.247 468.173L812.399 468.93C820.274 477.295 828.148 485.66 836.023 494.036L835.441 489.528C825.073 512.549 809.592 532.599 795.427 553.337L799.632 551.624C784.686 546.673 768.867 543.912 754.807 536.572C752.396 535.314 749.122 536.84 749.204 539.787C749.693 556.995 761.936 569.496 774.365 579.923C787.96 591.328 800.436 602.233 801.81 621.095C802.462 630.089 801.635 639.433 799.69 648.229C797.745 657.025 794.763 665.296 794.902 674.186C795.147 690.065 806.144 703.195 820.565 708.717L821.555 701.413C795.59 702.426 769.601 701.739 743.612 702.112L747.2 706.818C752.023 687.222 752.535 666.147 751.836 646.039C751.755 643.58 749.53 641.856 747.13 642.45C714.455 650.477 683.411 665.471 655.43 684.054C639.261 694.784 624.001 706.935 609.953 720.333C599.981 729.839 590.068 738.228 587.75 752.313C586.061 762.647 588.123 775.94 600.96 776.394V768.95C574.214 769.171 547.48 769.346 520.734 769.567L523.949 775.171C547.585 740.418 571.686 705.956 595.007 670.994C613.995 642.555 636.571 604.656 625.679 569.076C623.78 562.878 620.914 558.055 617.094 552.964C615.125 550.343 613.133 547.721 611.188 545.077C610.454 544.086 609.79 542.921 608.963 542.013C607.46 540.335 608.415 539.205 607.903 542.467C608.415 539.17 605.526 536.828 602.439 538.261C587.797 545.1 573.154 551.939 558.5 558.777L563.59 560.117C549.309 538.343 538.871 514.797 526.395 492.056C524.089 487.862 517.659 491.602 519.965 495.807L520.047 495.784Z" fill="#50329F"/>
<path d="M823.823 476.305C822.483 470.316 827.213 466.984 827.178 460.938C827.178 459.948 827.19 458.363 827.411 457.536C827.632 456.709 827.539 456.103 828.541 456.126C828.541 456.126 844.733 561.818 866.33 623.495C867.739 627.514 874.437 646.05 862.695 633.794C860.191 631.173 826.63 488.957 823.811 476.316L823.823 476.305Z" fill="#FF4600"/>
<path d="M827.552 476.305C827.016 472.309 828.903 469.687 830.068 466.029C830.511 464.631 830.709 463.256 830.849 461.812C830.919 461.148 830.942 460.472 830.919 459.808C831.256 458.27 831.093 458.118 830.441 459.342L824.978 457.117C827.971 476.643 831.536 496.087 835.345 515.473C842.23 550.552 849.801 585.806 861.159 619.744C861.998 622.249 862.895 624.73 863.733 627.235C864.421 629.332 864.607 633.095 865.76 634.831C865.923 635.087 865.609 635.693 865.83 635.856C866.89 636.672 868.777 634.924 868.661 634.132C868.661 634.178 864.805 630.415 865.609 631.476C866.017 632.012 865.923 632.279 865.574 630.986C863.768 624.264 861.811 617.577 860.076 610.831C853.692 585.934 847.705 560.933 841.729 535.931C836.894 515.753 831.979 495.574 827.435 475.326C826.387 470.654 819.211 472.635 820.26 477.307C830.429 522.615 841.379 567.83 852.912 612.812C854.659 619.639 856.01 626.92 858.585 633.491C859.901 636.846 862.813 640.027 866.296 641.204C871.818 643.068 873.67 637.825 873.029 633.375C872.225 627.782 869.884 622.412 868.113 617.076C865.201 608.303 862.592 599.425 860.157 590.513C854.985 571.57 850.57 552.416 846.528 533.193C841.088 507.318 836.184 481.291 832.165 455.148C831.757 452.526 828.635 452.072 826.702 452.922C822.962 454.565 823.859 458.783 823.323 462.126C822.508 467.217 819.409 470.899 820.132 476.316C820.761 480.988 828.204 481.058 827.575 476.316L827.552 476.305Z" fill="#FF4600"/>
<path d="M804.771 462.953C806.483 468.883 809.023 474.976 814.032 478.576C819.786 482.712 828.441 482.386 833.637 477.551C845.519 466.495 842.012 442.053 838.39 428.375C837.131 423.622 834.487 419.043 830.305 416.457C825.017 413.195 818.051 413.672 812.436 416.317C792.644 425.637 799.878 445.967 804.783 462.953H804.771Z" fill="#FF4600"/>
<path d="M801.183 463.944C805.108 476.957 815.406 489.714 830.55 483.761C842.921 478.903 845.728 463.28 845.542 451.571C845.355 439.862 843.981 422.76 834.266 414.756C823.467 405.855 805.912 411.82 799.144 422.993C791.642 435.365 797.513 451.326 801.183 463.944C802.522 468.534 809.698 466.577 808.358 461.963C805.493 452.107 800.379 439.583 804.281 429.365C806.541 423.447 812.622 419.23 818.749 418.158C828.022 416.538 833.205 423.016 835.256 431.183C837.993 442.099 839.822 454.821 836.409 465.784C834.498 471.912 830.27 477.749 823.222 477.714C814.334 477.679 810.56 469.245 808.358 461.963C806.972 457.396 799.796 459.342 801.183 463.944Z" fill="#FF4600"/>
<path d="M819.214 466.285C821.194 491.73 843.746 507.003 851.283 530.234C858.494 552.475 852.064 576.649 831.41 589.057C808.835 602.618 781.53 601.173 758.057 590.781C735.901 580.971 718.975 564.684 702.958 546.964C675.047 516.067 646.414 481.419 604.467 470.142C584.395 464.748 561.727 464.515 541.924 471.213C522.586 477.749 510.576 491.904 504.834 511.314C497.006 537.737 505.731 563.298 515.446 587.927C526.151 615.084 538.068 647.879 518.439 674.058C515.947 677.39 521.55 680.617 524.019 677.32C558.418 631.417 507.303 580.016 508.025 532.308C508.398 507.714 520.688 484.774 544.871 477.062C567.644 469.804 593.645 471.726 615.615 480.755C658.646 498.452 683.318 539.356 715.923 570.032C747.154 599.425 796.033 619.068 835.767 593.985C853.858 582.567 862.804 562.238 860.253 541.162C858.797 529.139 854.021 518.153 847.264 508.168C838.388 495.05 826.937 482.84 825.656 466.285C825.341 462.161 818.864 462.126 819.191 466.285H819.214Z" fill="#FF4600"/>
<path d="M815.487 466.285C817.735 489.516 835.301 504.464 844.97 524.479C855.722 546.743 850.142 574.319 827.834 586.843C803.209 600.672 773.166 595.826 749.554 582.311C725.942 568.797 710.286 549.457 693.115 530.479C677.156 512.828 660.487 495.376 640.392 482.374C618.923 468.487 593.575 461.159 567.948 462.604C545.058 463.897 522.331 471.831 509.494 491.87C495.259 514.098 496.202 541.267 503.553 565.686C510.903 590.105 524.917 613.965 525.22 640.26C525.289 646.411 524.509 652.516 522.575 658.365C521.527 661.522 520.129 664.539 518.428 667.405C517.019 669.782 514.421 672.287 514.176 675.164C513.885 678.496 516.238 681.327 519.407 682.143C524.241 683.389 526.932 679.848 529.32 676.271C556.241 636.066 522.983 591.41 513.932 551.31C509.156 530.153 512.196 505.698 528.959 490.39C548.436 472.6 581.682 473.788 605.271 481C654.021 495.912 679.917 542.816 715.877 575.03C749.146 604.82 803.558 624.497 842.745 593.589C861.22 579.026 867.942 554.805 862.408 532.32C859.252 519.481 852.285 508.623 844.632 498.056C841.231 493.349 837.806 488.607 834.999 483.505C833.403 480.592 832.016 477.586 831.026 474.429C830.036 471.272 830.188 467.357 828.976 464.212C826.145 456.872 816.092 458.818 815.463 466.32C815.067 471.097 822.511 471.062 822.907 466.32C822.872 466.798 822.231 467.788 822.196 468.709C822.138 469.99 822.627 471.633 822.907 472.879C823.501 475.559 824.386 478.145 825.423 480.674C827.765 486.347 830.956 491.532 834.451 496.565C841.603 506.875 849.432 516.568 853.555 528.615C861.663 552.37 854.347 578.583 832.284 591.795C811.479 604.249 786.679 603.969 764.325 596C741.97 588.031 723.612 573.282 707.408 556.308C676.108 523.512 647.952 483.726 601.438 472.25C579.41 466.821 551.826 466.705 531.894 478.949C515.004 489.318 506.115 508.157 504.531 527.45C502.819 548.35 510.763 568.54 518.09 587.682C525.418 606.823 534.096 627.293 531.883 648.159C531.324 653.448 529.961 658.761 527.806 663.642C526.792 665.949 525.592 668.174 524.288 670.329C523.6 671.448 522.272 672.799 521.865 674.011C520.327 678.648 523.496 673.324 523.845 672.799C529.728 663.642 532.5 652.889 532.652 642.054C532.989 617.635 521.608 595.371 513.722 572.898C504.881 547.721 500.687 519.364 515.912 495.656C529.413 474.639 555.798 468.977 579.27 470.013C630.456 472.285 664.832 510.149 696.773 545.694C713.058 563.81 730.426 581.6 752.618 592.377C773.655 602.606 798.677 606.404 821.043 598.121C841.068 590.699 855.466 574.843 857.586 553.185C859.787 530.63 847.416 513.551 835.441 495.889C829.326 486.872 823.99 477.365 822.93 466.32C822.476 461.602 815.032 461.544 815.487 466.32V466.285Z" fill="#FF4600"/>
<path d="M848.358 456.126C836.243 461.159 824.757 467.811 814.25 477.19C817.582 477.073 820.925 476.957 824.256 476.84C826.19 476.771 828.135 476.701 830.069 476.642C826.959 480.231 823.849 483.831 820.727 487.419C825.549 486.301 830.36 485.182 835.183 484.064C834.17 489.225 833.156 494.398 832.143 499.559C837.466 495.295 842.755 492.475 848.148 490.6L848.346 456.126H848.358Z" fill="#50329F"/>
<path d="M846.469 452.911C833.713 458.316 822.041 465.423 811.604 474.557C809.181 476.677 811.114 481.023 814.236 480.906C819.513 480.72 824.79 480.534 830.067 480.347L827.434 473.998C824.324 477.586 821.214 481.186 818.092 484.774C815.669 487.559 817.976 491.858 821.715 490.996C826.537 489.877 831.348 488.759 836.171 487.64L831.593 483.062C830.58 488.223 829.566 493.396 828.553 498.557C827.796 502.413 831.849 504.429 834.773 502.18C839.188 498.766 843.906 496.099 849.136 494.176C850.697 493.605 851.862 492.324 851.862 490.588C851.932 479.101 851.99 467.602 852.06 456.115C852.083 451.326 844.651 451.315 844.617 456.115C844.547 467.602 844.488 479.101 844.418 490.588L847.144 487C840.644 489.4 834.971 492.685 829.496 496.914L835.717 500.537C836.73 495.376 837.744 490.203 838.757 485.042C839.305 482.235 837.068 479.8 834.179 480.464C829.357 481.582 824.545 482.701 819.723 483.819L823.346 490.04C826.456 486.452 829.566 482.852 832.688 479.264C834.68 476.969 833.48 472.798 830.055 472.914C824.778 473.101 819.502 473.287 814.225 473.474L816.857 479.823C826.805 471.109 838.058 464.491 850.208 459.342C854.6 457.478 850.814 451.07 846.457 452.911H846.469Z" fill="#50329F"/>
<path d="M524.998 468.452C524.625 476.747 522.936 485.019 522.68 493.302C525.487 489.225 528.294 485.159 531.102 481.081C533.49 487.361 535.878 493.629 538.266 499.908C540.083 494.526 541.9 489.132 543.718 483.749C547.515 487.85 551.313 491.963 555.099 496.052C554.586 490.693 553.945 480.091 553.561 470.596L524.998 468.464V468.452Z" fill="#50329F"/>
<path d="M521.27 468.452C520.781 476.759 519.337 484.972 518.952 493.302C518.766 497.252 523.938 498.009 525.883 495.178C528.691 491.101 531.498 487.035 534.305 482.957L527.502 482.072C529.89 488.351 532.278 494.619 534.667 500.898C535.971 504.312 540.619 504.533 541.842 500.898C543.659 495.516 545.477 490.122 547.294 484.739L541.073 486.382C544.871 490.483 548.669 494.584 552.454 498.685C554.528 500.933 559.106 499.291 558.803 496.052C558.034 487.594 557.627 479.089 557.265 470.596C557.172 468.476 555.623 467.031 553.549 466.879C544.032 466.169 534.503 465.458 524.986 464.747C520.21 464.386 520.234 471.831 524.986 472.192C534.503 472.903 544.032 473.613 553.549 474.324L549.833 470.608C550.195 479.101 550.602 487.594 551.371 496.064L557.72 493.431C553.922 489.33 550.125 485.229 546.339 481.128C544.335 478.961 540.969 480.242 540.118 482.771C538.301 488.153 536.484 493.547 534.667 498.93H541.842C539.454 492.65 537.066 486.382 534.678 480.103C533.513 477.05 529.774 476.468 527.875 479.217C525.068 483.295 522.26 487.361 519.453 491.438L526.384 493.314C526.769 484.996 528.213 476.782 528.702 468.464C528.982 463.676 521.538 463.699 521.259 468.464L521.27 468.452Z" fill="#50329F"/>
<path d="M633.1 440.468C653.974 448.204 677.68 448.018 698.427 439.932C704.041 437.742 712.137 433.257 709.971 427.629C690.925 378.337 633.1 396.407 633.1 440.468Z" fill="white"/>
<path d="M681.116 438.383C692.239 438.383 701.256 429.364 701.256 418.239C701.256 407.114 692.239 398.096 681.116 398.096C669.992 398.096 660.975 407.114 660.975 418.239C660.975 429.364 669.992 438.383 681.116 438.383Z" fill="#50329F" stroke="#50329F" stroke-width="0.53" stroke-linecap="round" stroke-linejoin="round"/>
</svg>
