<svg width="1383" height="256" viewBox="0 0 1383 256" fill="none" xmlns="http://www.w3.org/2000/svg">
<path d="M164.897 4.45529C164.024 3.37593 162.715 2.7559 161.337 2.7559H133.091C130.932 2.7559 129.049 4.27163 128.589 6.38441L108.265 102.148C105.487 115.353 103.259 126.629 101.376 137.538L96.6909 7.16514C96.5991 4.68492 94.5782 2.73291 92.0979 2.73291H55.928C53.7693 2.73291 51.8862 4.24864 51.4269 6.36142L0.10007 247.517C-0.198476 248.872 0.146 250.296 1.01867 251.352C1.89134 252.432 3.20035 253.052 4.57825 253.052H32.8252C34.9839 253.052 36.8671 251.536 37.3264 249.423L57.9949 152.281C60.9114 138.479 63.2539 126.377 65.2978 114.573L70.2812 248.642C70.373 251.1 72.394 253.075 74.8742 253.075H110.011C112.169 253.075 114.053 251.559 114.512 249.446L165.839 8.31339C166.137 6.95846 165.793 5.53464 164.92 4.45529H164.897Z" fill="white"/>
<path d="M248.444 0C181.041 0 159.799 155.289 159.799 199.222C159.799 248.482 184.463 255.83 199.184 255.83C266.586 255.83 287.829 100.541 287.829 56.6088C287.829 7.34886 263.164 0 248.444 0ZM203.318 217.364C200.883 217.364 199.299 211.324 199.299 201.977C199.299 184.042 204.856 142.797 214.157 104.812C226.145 55.851 237.903 38.4664 244.31 38.4664C246.744 38.4664 248.329 44.5062 248.329 53.853C248.329 71.7887 242.771 113.034 233.471 151.018C221.483 199.979 209.725 217.364 203.318 217.364Z" fill="white"/>
<path d="M373.993 8.29037C374.269 6.93543 373.947 5.5346 373.074 4.45525C372.202 3.37589 370.893 2.75586 369.515 2.75586H337.823C335.664 2.75586 333.781 4.27159 333.322 6.38437L288.196 218.237L281.995 247.517C281.72 248.872 282.041 250.296 282.914 251.352C283.786 252.432 285.095 253.052 286.473 253.052H318.165C320.324 253.052 322.207 251.536 322.666 249.423L367.792 37.5708L373.993 8.29037Z" fill="white"/>
<path d="M437.951 102.378C432.348 95.1212 429.27 84.3735 429.27 72.1102C429.27 52.9344 436.481 38.4664 446.035 38.4664C448.423 38.4664 449.388 39.2472 450.008 40.028C455.749 47.0783 449.709 75.8305 447.734 85.2921C447.459 86.6471 447.803 88.0479 448.676 89.1272C449.548 90.2066 450.857 90.8266 452.235 90.8266H483.583C485.764 90.8266 487.647 89.288 488.084 87.1293C495.088 52.2914 492.7 27.3513 480.965 13.0211C473.891 4.38628 463.764 0 450.857 0C416.042 0 389.77 32.7711 389.77 76.2439C389.77 98.1066 396.04 117.03 408.969 134.139L417.627 145.552C424.402 154.256 427.686 165.279 427.686 179.242C427.686 202.781 418.086 217.364 409.199 217.364C406.994 217.364 406.03 216.56 405.364 215.779C398.543 207.581 405.019 172.628 407.155 161.146C407.408 159.814 407.04 158.413 406.167 157.379C405.295 156.323 404.009 155.726 402.631 155.726H371.284C369.102 155.726 367.219 157.265 366.782 159.377C358.837 197.729 361.432 226.366 374.338 242.189C381.71 251.237 392.044 255.853 405.042 255.853C441.028 255.853 467.163 221.038 467.163 173.064C467.163 150.513 461.008 132.784 446.586 113.792L437.951 102.378Z" fill="white"/>
<path d="M604.562 2.7559H536.011C533.853 2.7559 531.969 4.27163 531.51 6.38441L480.183 247.517C479.885 248.872 480.229 250.296 481.102 251.352C481.975 252.432 483.284 253.052 484.661 253.052H555.279C557.438 253.052 559.321 251.536 559.78 249.4L565.981 220.12C566.256 218.765 565.935 217.341 565.062 216.285C564.189 215.205 562.88 214.585 561.502 214.585H528.272L543.521 143.508H573.904C576.062 143.508 577.945 141.993 578.405 139.857L584.605 110.577C584.881 109.222 584.559 107.798 583.687 106.741C582.814 105.685 581.505 105.042 580.127 105.042H551.696L565.246 41.1993H598.384C600.543 41.1993 602.426 39.6836 602.885 37.5478L609.086 8.26742C609.362 6.91248 609.04 5.51166 608.167 4.4323C607.295 3.35294 605.986 2.73291 604.608 2.73291L604.562 2.7559Z" fill="white"/>
<path d="M797.583 4.45525C796.71 3.37589 795.401 2.75586 794.023 2.75586H762.332C760.173 2.75586 758.29 4.27159 757.83 6.38437L736.565 106.42H714.266L735.141 8.29037C735.416 6.93543 735.095 5.51164 734.222 4.45525C733.35 3.37589 732.041 2.75586 730.663 2.75586H698.971C696.812 2.75586 694.929 4.27159 694.47 6.38437L643.143 247.517C642.844 248.872 643.189 250.296 644.062 251.352C644.934 252.432 646.243 253.052 647.621 253.052H679.313C681.472 253.052 683.355 251.536 683.814 249.423L706.113 144.886H728.412L706.527 247.494C706.228 248.849 706.572 250.273 707.445 251.352C708.318 252.432 709.627 253.052 711.005 253.052H742.696C744.855 253.052 746.738 251.536 747.198 249.423L798.524 8.29037C798.823 6.93543 798.478 5.51162 797.606 4.43226L797.583 4.45525Z" fill="white"/>
<path d="M885.218 106.764C884.345 105.685 883.036 105.065 881.659 105.065H853.228L866.777 41.2223H899.916C902.074 41.2223 903.958 39.7065 904.417 37.5708L910.617 8.29037C910.893 6.93543 910.571 5.5346 909.699 4.45525C908.826 3.37589 907.517 2.75586 906.139 2.75586H837.589C835.43 2.75586 833.547 4.27159 833.088 6.38437L781.761 247.517C781.462 248.872 781.807 250.296 782.679 251.352C783.552 252.432 784.861 253.052 786.239 253.052H856.856C859.015 253.052 860.898 251.536 861.357 249.4L867.558 220.12C867.834 218.765 867.512 217.341 866.639 216.285C865.767 215.205 864.458 214.585 863.08 214.585H829.849L845.098 143.508H875.481C877.64 143.508 879.523 141.993 879.982 139.857L886.183 110.577C886.458 109.222 886.137 107.798 885.264 106.741L885.218 106.764Z" fill="white"/>
<path d="M977.675 2.75586H939.783C937.624 2.75586 935.741 4.27159 935.282 6.38437L883.955 247.517C883.657 248.872 884.001 250.296 884.874 251.352C885.746 252.432 887.055 253.052 888.433 253.052H920.125C922.284 253.052 924.167 251.536 924.626 249.423L945.892 149.387H949.75C953.884 149.387 956.685 150.26 958.063 151.983C960.13 154.578 960.245 160.158 958.362 168.632L941.482 247.517C941.184 248.872 941.528 250.296 942.401 251.375C943.274 252.455 944.583 253.075 945.984 253.075H978.02C980.178 253.075 982.062 251.559 982.521 249.446L998.367 175.705C1002.22 157.219 1003.47 139.053 988.951 128.903C1014.01 113.309 1025.33 82.6971 1025.33 57.2978C1025.33 23.654 1007.07 2.75586 977.675 2.75586ZM968.995 41.2223H974.575C979.512 41.2223 984.794 42.4624 984.794 57.2978C984.794 76.7951 975.287 111.61 956.318 111.61H954.067L968.995 41.2223Z" fill="white"/>
<path d="M1114.16 0C1046.75 0 1025.51 155.289 1025.51 199.222C1025.51 248.482 1050.18 255.83 1064.9 255.83C1132.3 255.83 1153.54 100.541 1153.54 56.6088C1153.54 7.34886 1128.88 0 1114.16 0ZM1069.03 217.364C1066.6 217.364 1065.01 211.324 1065.01 201.977C1065.01 184.042 1070.57 142.797 1079.87 104.812C1091.86 55.851 1103.61 38.4664 1110.02 38.4664C1112.46 38.4664 1114.04 44.5062 1114.04 53.853C1114.04 71.7887 1108.48 113.034 1099.18 151.018C1087.19 199.979 1075.44 217.364 1069.03 217.364Z" fill="white"/>
<path d="M1247.61 105.065H1219.18L1232.73 41.2223H1265.86C1268.02 41.2223 1269.91 39.7065 1270.36 37.5708L1276.57 8.29037C1276.84 6.93543 1276.52 5.5346 1275.65 4.45525C1274.77 3.37589 1273.46 2.75586 1272.09 2.75586H1203.54C1201.38 2.75586 1199.49 4.27159 1199.04 6.38437L1147.71 247.517C1147.41 248.872 1147.75 250.296 1148.63 251.352C1149.5 252.432 1150.81 253.052 1152.19 253.052H1222.8C1224.96 253.052 1226.85 251.536 1227.31 249.4L1233.51 220.12C1233.78 218.765 1233.46 217.341 1232.59 216.285C1231.71 215.205 1230.41 214.585 1229.03 214.585H1195.8L1211.05 143.508H1241.43C1243.59 143.508 1245.47 141.993 1245.93 139.857L1252.13 110.577C1252.41 109.222 1252.08 107.798 1251.21 106.741C1250.34 105.685 1249.03 105.042 1247.65 105.042L1247.61 105.065Z" fill="white"/>
<path d="M1371.98 13.0211C1364.91 4.38628 1354.78 0 1341.88 0C1307.06 0 1280.79 32.7711 1280.79 76.2439C1280.79 98.1066 1287.06 117.03 1299.99 134.139L1308.65 145.552C1315.42 154.256 1318.7 165.279 1318.7 179.242C1318.7 202.781 1309.11 217.364 1300.22 217.364C1298.01 217.364 1297.05 216.56 1296.38 215.779C1289.56 207.581 1296.04 172.628 1298.17 161.146C1298.43 159.814 1298.06 158.413 1297.19 157.379C1296.31 156.323 1295.03 155.726 1293.65 155.726H1262.3C1260.12 155.726 1258.24 157.265 1257.8 159.377C1249.86 197.729 1252.45 226.366 1265.36 242.189C1272.73 251.237 1283.06 255.853 1296.06 255.853C1332.05 255.853 1358.18 221.038 1358.18 173.064C1358.18 150.513 1352.03 132.784 1337.6 113.792L1328.97 102.378C1323.37 95.1212 1320.29 84.3965 1320.29 72.1102C1320.29 52.9344 1327.5 38.4664 1337.05 38.4664C1339.44 38.4664 1340.41 39.2472 1341.03 40.028C1346.77 47.0783 1340.73 75.8305 1338.75 85.2921C1338.48 86.6471 1338.82 88.0479 1339.67 89.1272C1340.54 90.2066 1341.85 90.8266 1343.23 90.8266H1374.58C1376.76 90.8266 1378.64 89.288 1379.08 87.1293C1386.08 52.2914 1383.7 27.3513 1371.96 13.0211H1371.98Z" fill="white"/>
</svg>
